<svg width="560" height="428" viewBox="0 0 560 428" fill="none" xmlns="http://www.w3.org/2000/svg">
<path d="M559.999 426.382C559.999 426.382 359.627 429.971 360.022 426.382C360.058 426.131 360.094 425.88 360.094 425.628L508.785 425.09L506.416 379.223L368.528 383.422C408.401 248.764 550.776 242.34 550.776 242.34L559.999 426.382Z" fill="#E30613"/>
<path d="M313.618 253.753C319.576 240.473 324.242 226.118 326.431 211.798C329.912 189.187 322.627 180.502 320.653 177.667C317.566 173.252 315.879 169.699 315.915 164.387C314.336 158.86 315.054 153.692 320.724 150.067C322.878 148.704 327.113 150.57 326.216 153.226C323.56 161.301 330.056 169.161 335.439 164.674C338.597 162.055 339.423 152.651 339.423 148.596C334.721 139.803 329.158 146.945 325.247 148.093C322.375 148.955 319.863 143.141 321.801 140.521C330.738 128.39 337.377 131.333 343.622 138.762C344.483 135.819 343.945 141.597 344.376 142.208C344.448 133.63 344.232 125.052 344.16 116.475C344.125 112.993 349.221 111.055 351.59 112.886C355.753 116.116 354.245 121.32 355.25 125.627C355.394 121.069 355.645 118.484 355.609 113.855C355.573 109.153 363.433 110.876 363.469 115.577C363.469 117.551 364.725 115.613 364.725 117.587C364.869 117.515 365.012 117.444 365.156 117.372L364.007 94.5102C363.433 82.8461 353.886 73.6224 342.186 73.4789L129.146 70.5718C116.584 70.4282 106.391 80.6927 106.715 93.2541L107.145 111.773L109.37 205.158L110.268 244.349C110.555 256.337 120.317 265.919 132.304 265.991L349.329 267.211C358.552 267.283 366.412 261.684 369.786 253.753H313.618ZM233.8 182.512C230.354 185.419 227.232 188.685 225.796 192.991C224.648 196.401 225.33 200.098 223.284 203.292C219.444 209.321 212.661 210.434 206.093 209.537C189.799 207.311 174.618 198.231 174.797 180.466C174.833 175.477 177.274 167.797 175.694 162.88C173.972 157.532 168.588 155.702 164.138 152.58C158.575 148.632 153.263 144.038 152.797 136.788C152.258 128.569 157.391 125.95 163.133 121.75C176.986 111.665 177.309 96.843 181.221 81.4464C181.221 80.2261 181.76 79.0059 182.944 78.4316C198.448 71.0384 221.525 69.531 236.886 77.5344C249.591 84.174 248.227 100.791 249.196 113.855C250.524 132.123 258.635 176.949 233.8 182.512Z" fill="#A1DAF8"/>
<path d="M466.975 100.254C466.329 100.254 465.719 99.8237 465.539 99.1777C465.467 98.9624 459.474 78.0746 449.102 75.7418C448.492 75.5982 448.061 75.1316 447.953 74.5215C447.846 73.9114 448.169 73.3371 448.671 73.0141C459.761 66.6976 466.149 47.9273 466.221 47.7119C466.436 47.1018 466.975 46.707 467.621 46.707C468.267 46.707 468.841 47.1377 469.021 47.7478C469.092 47.9632 475.66 68.7074 485.027 72.9424C485.53 73.1577 485.853 73.6602 485.889 74.2344C485.925 74.7727 485.637 75.3111 485.135 75.5982C484.991 75.67 472.358 82.9915 468.303 99.1418C468.267 99.7878 467.657 100.254 466.975 100.254C466.975 100.254 467.011 100.254 466.975 100.254ZM452.691 73.9473C459.905 77.6439 464.678 87.9801 466.939 93.9737C470.887 83.2427 478.137 76.962 481.69 74.4138C474.835 69.6764 469.882 58.4429 467.621 52.4853C465.288 58.0123 460.228 68.2408 452.691 73.9473Z" fill="#000200"/>
<path d="M45.738 273.923C45.1638 273.923 44.6255 273.565 44.3742 273.026C40.3905 263.587 28.1162 238.967 19.0003 238.429C18.2825 238.393 17.7082 237.854 17.6006 237.137C17.5288 236.419 17.9595 235.773 18.6414 235.557C33.9303 230.892 41.6466 220.125 42.2926 212.157C42.3644 211.475 42.8669 210.937 43.5488 210.829C44.2307 210.722 44.8767 211.081 45.1279 211.727C45.1997 211.906 52.6647 229.384 65.3338 235.665C65.7645 235.88 66.0875 236.311 66.1234 236.778C66.1951 237.244 66.0157 237.747 65.6568 238.07C65.0108 238.644 64.2571 239.29 63.4316 239.936C58.3353 244.099 49.7936 251.026 47.1377 272.631C47.066 273.277 46.5276 273.816 45.8816 273.923C45.8816 273.923 45.8098 273.923 45.738 273.923ZM23.63 236.921C32.4589 241.946 41.1083 258.742 45.0561 267.248C48.5015 248.37 56.6485 241.73 61.6372 237.639C61.8166 237.495 61.9602 237.352 62.1396 237.244C53.2749 232.004 47.2454 222.278 44.3742 216.787C41.9696 224.109 35.1506 232.256 23.63 236.921Z" fill="#000200"/>
<path d="M324.923 98.3491C323.811 95.8727 322.519 93.4681 321.442 90.9558C320.688 89.1972 318.14 90.7046 318.894 92.4631C319.97 94.9754 321.262 97.38 322.375 99.8564C323.165 101.579 325.713 100.072 324.923 98.3491Z" fill="#FFDD00"/>
<path d="M317.853 115.291C314.407 112.815 310.962 110.374 307.696 107.683C306.225 106.498 304.143 108.58 305.614 109.764C309.096 112.6 312.756 115.22 316.381 117.839C317.889 118.952 319.396 116.368 317.853 115.291Z" fill="#FFDD00"/>
<path d="M17.4925 267.463C11.8937 273.026 6.07957 278.374 0.444895 283.901C-0.918911 285.228 1.16268 287.31 2.52649 285.982C8.12527 280.419 13.9753 275.108 19.5741 269.545C20.9379 268.217 18.8563 266.135 17.4925 267.463Z" fill="#E30613"/>
<path d="M25.9975 206.236C24.4183 204.585 23.1622 202.719 22.1214 200.673C21.26 198.986 18.7119 200.494 19.5732 202.181C20.7576 204.442 22.1573 206.523 23.9159 208.354C25.2079 209.682 27.2895 207.6 25.9975 206.236Z" fill="#E30613"/>
<path d="M523.537 170.703C517.723 165.068 511.693 159.685 505.377 154.624C503.905 153.44 501.824 155.521 503.295 156.706C509.612 161.766 515.641 167.15 521.455 172.784C522.819 174.112 524.901 172.031 523.537 170.703Z" fill="#E30613"/>
<path d="M392.683 82.2741C388.125 77.7879 383.029 73.9477 377.933 70.1434C376.425 68.9949 374.918 71.579 376.425 72.6916C381.342 76.3523 386.223 80.0489 390.602 84.3916C391.965 85.6836 394.047 83.602 392.683 82.2741Z" fill="#000200"/>
<path d="M391.894 69.0666C386.942 74.0193 381.953 79.008 377 83.9608C375.672 85.2887 377.754 87.4062 379.082 86.0424L393.976 71.1482C395.304 69.8203 393.222 67.7387 391.894 69.0666Z" fill="#000200"/>
<path d="M387.946 253.933C387.874 253.933 387.838 253.933 387.766 253.933L170.741 252.713C157.893 252.605 147.557 242.484 147.234 229.636L143.645 78.5763C143.501 72.1162 145.906 66.015 150.464 61.4211C154.95 56.899 160.908 54.3867 167.296 54.3867C167.404 54.3867 167.475 54.3867 167.583 54.3867L380.624 57.2938C393.042 57.4373 403.27 67.307 403.881 79.7248L411.453 229.133C411.776 235.665 409.479 241.91 404.921 246.648C400.507 251.349 394.442 253.933 387.946 253.933ZM167.332 57.3297C161.733 57.3297 156.529 59.5189 152.617 63.4668C148.633 67.4864 146.516 72.834 146.659 78.5045L150.248 229.564C150.536 240.798 159.544 249.698 170.813 249.77L387.838 250.99C387.874 250.99 387.946 250.99 387.981 250.99C393.652 250.99 398.964 248.729 402.876 244.602C406.859 240.439 408.869 235.019 408.582 229.277L401.009 79.8684C400.471 68.9938 391.499 60.3803 380.624 60.2367L167.583 57.3297C167.511 57.3297 167.404 57.3297 167.332 57.3297Z" fill="#000200"/>
<path d="M96.7018 298.688C95.9122 298.688 95.2303 298.042 95.2303 297.216L91.3901 1.48539C91.3901 1.0906 91.5337 0.695819 91.8208 0.444592C92.1079 0.157475 92.4309 -0.0578676 92.8616 0.0139117L385.47 0.947045C386.295 0.947045 386.941 1.59306 386.941 2.41852V59.4113C386.941 60.2367 386.295 60.8827 385.47 60.8827C384.644 60.8827 383.998 60.2367 383.998 59.4113V3.85411L94.369 2.92097L98.1733 297.18C98.1733 298.006 97.5273 298.688 96.7018 298.688Z" fill="#000200"/>
<path d="M383.998 252.569V292.766C383.998 293.591 384.644 294.237 385.47 294.237C386.295 294.237 386.941 293.591 386.941 292.766V252.426C385.972 252.462 384.967 252.462 383.998 252.569Z" fill="#000200"/>
<path d="M175.336 398.641H82.5613L78.5058 298.975L456.46 293.125V381.163C457.429 380.875 458.398 380.624 459.403 380.481V291.618C459.403 291.223 459.259 290.828 458.972 290.577C458.685 290.29 458.29 290.182 457.931 290.146L76.9625 296.032C76.5677 296.032 76.1729 296.212 75.9217 296.499C75.6346 296.786 75.491 297.181 75.5269 297.576L79.6901 400.148C79.726 400.938 80.372 401.548 81.1616 401.548H175.515C175.48 401.297 175.408 401.045 175.372 400.83C175.192 400.076 175.192 399.323 175.336 398.641Z" fill="#000200"/>
<path d="M114.324 345.809L225.725 342.938C226.264 342.938 226.766 343.189 227.053 343.619C227.197 343.835 227.269 344.05 227.305 344.301L228.812 356.611C228.848 357.042 228.74 357.437 228.525 357.724C228.238 358.083 227.771 358.334 227.269 358.334L114.396 357.186C114.18 357.186 113.965 357.15 113.786 357.042C113.247 356.791 112.853 356.253 112.853 355.607V347.316C112.853 346.993 112.96 346.706 113.104 346.455C113.319 346.096 113.786 345.845 114.324 345.809Z" fill="#000200"/>
<path d="M246.217 344.66L247.832 357.042C247.868 357.329 248.012 357.616 248.191 357.832C248.478 358.191 248.909 358.406 249.376 358.406H275.683C276.185 358.406 276.616 358.191 276.903 357.832C277.19 357.473 277.298 357.006 277.19 356.54L274.462 344.158C274.391 343.799 274.175 343.512 273.924 343.296C273.673 343.081 273.314 342.938 272.955 342.938H247.761C247.294 342.938 246.863 343.153 246.612 343.476C246.289 343.763 246.146 344.194 246.217 344.66Z" fill="#000200"/>
<path d="M415.007 357.329C404.85 357.329 396.596 348.931 396.596 338.595C396.596 328.438 404.85 320.184 415.007 320.184C425.164 320.184 433.418 328.438 433.418 338.595C433.418 351.049 427.21 357.329 415.007 357.329ZM415.007 323.127C406.465 323.127 399.539 330.053 399.539 338.595C399.539 347.137 406.609 354.386 415.007 354.386C425.559 354.386 430.476 349.362 430.476 338.595C430.44 330.053 423.513 323.127 415.007 323.127Z" fill="#000200"/>
<path d="M415.007 343.801C414.181 343.801 413.535 343.155 413.535 342.33V316.095C413.535 315.269 414.181 314.623 415.007 314.623C415.832 314.623 416.478 315.269 416.478 316.095V342.33C416.478 343.155 415.796 343.801 415.007 343.801Z" fill="#000200"/>
<path d="M131.228 281.642H103.234C102.409 281.642 101.763 280.996 101.763 280.171C101.763 279.345 102.409 278.699 103.234 278.699H131.228C132.054 278.699 132.7 279.345 132.7 280.171C132.7 280.96 132.054 281.642 131.228 281.642Z" fill="#000200"/>
<path d="M131.228 287.382H103.234C102.409 287.382 101.763 286.736 101.763 285.911C101.763 285.085 102.409 284.439 103.234 284.439H131.228C132.054 284.439 132.7 285.085 132.7 285.911C132.7 286.736 132.054 287.382 131.228 287.382Z" fill="#000200"/>
<path d="M222.818 140.269C222.064 140.269 221.382 139.659 221.346 138.905C221.31 138.08 221.921 137.398 222.71 137.326C225.258 137.147 227.304 136.357 228.201 135.173C228.704 134.527 228.811 133.737 228.596 132.804C228.129 130.722 223.141 129.825 220.987 129.718C220.234 129.682 219.624 129.072 219.588 128.354L218.762 115.756C218.726 114.931 219.336 114.249 220.126 114.177C220.916 114.106 221.633 114.752 221.705 115.541L222.423 126.882C225.079 127.169 230.57 128.282 231.467 132.122C231.898 133.917 231.575 135.568 230.57 136.931C229.134 138.869 226.407 140.054 222.925 140.305C222.89 140.269 222.854 140.269 222.818 140.269Z" fill="#000200"/>
<path d="M228.991 112.707L229.17 115.47C229.385 119.023 234.912 118.664 234.661 115.111L234.482 112.348C234.266 108.795 228.775 109.153 228.991 112.707Z" fill="#000200"/>
<path d="M195.865 114.859L196.044 117.622C196.259 121.175 201.786 120.817 201.535 117.263L201.356 114.5C201.14 110.947 195.649 111.306 195.865 114.859Z" fill="#000200"/>
<path d="M196.044 101.472C193.854 102.082 191.773 102.836 189.727 103.841C188.148 104.63 189.691 106.927 191.27 106.138C193.065 105.241 195.003 104.63 196.941 104.056C198.628 103.59 197.73 101.006 196.044 101.472Z" fill="#000200"/>
<path d="M234.301 98.5312C232.83 97.6698 231.215 97.0956 229.815 96.1266C228.38 95.1217 226.549 97.2032 227.985 98.2082C229.6 99.3207 231.358 100.039 233.045 101.008C234.588 101.905 235.809 99.4284 234.301 98.5312Z" fill="#000200"/>
<path d="M206.524 153.727C204.442 153.548 201.643 152.758 201.356 150.354C201.14 148.595 198.377 148.775 198.592 150.533C199.059 154.266 202.504 156.132 205.949 156.455C207.708 156.563 208.282 153.871 206.524 153.727Z" fill="#000200"/>
<path d="M287.419 252.603C286.737 252.603 286.127 252.137 285.983 251.419C279.272 219.657 242.844 198.087 224.863 193.601C224.073 193.386 223.607 192.596 223.786 191.806C223.966 191.017 224.791 190.55 225.581 190.73C247.115 196.077 282.143 218.903 288.89 250.773C289.07 251.563 288.567 252.352 287.742 252.532C287.634 252.603 287.526 252.603 287.419 252.603Z" fill="#000200"/>
<path d="M210.221 211.977C199.275 211.977 185.636 204.584 174.798 192.31C161.59 195.325 150.07 201.031 149.926 201.103C149.208 201.462 148.311 201.175 147.952 200.457C147.593 199.739 147.881 198.842 148.598 198.483C149.101 198.232 161.052 192.274 175.013 189.259C175.551 189.152 176.09 189.331 176.449 189.726C188.579 203.759 204.981 211.583 215.497 208.281C221.311 206.45 224.828 201.354 225.653 193.566C225.725 192.741 226.479 192.166 227.268 192.238C228.094 192.31 228.668 193.064 228.596 193.853C227.376 205.302 221.275 209.537 216.394 211.08C214.456 211.69 212.374 211.977 210.221 211.977Z" fill="#000200"/>
<path d="M249.699 106.57C249.34 102.299 248.981 97.8486 248.586 93.2189C246.828 71.4697 232.113 61.3489 204.98 63.1075C189.871 64.0765 178.853 67.6295 171.711 73.9102C171.459 73.9461 171.244 74.0538 171.029 74.2333C161.913 76.6737 154.555 84.8207 149.064 92.1422C147.844 93.7213 146.696 95.3722 145.583 97.0591L147.808 190.444C152.151 190.875 156.601 190.659 160.657 190.157C165.322 189.583 169.629 188.075 173.326 185.706L173.828 190.839C173.9 191.592 174.546 192.167 175.3 192.167C175.336 192.167 175.407 192.167 175.443 192.167C176.269 192.095 176.843 191.377 176.771 190.552L176.089 183.697C179.606 180.718 182.37 176.77 183.985 171.925C186.748 163.634 186.533 148.812 176.951 144.649C175.228 143.895 173.397 143.644 171.531 143.572C169.844 143.393 162.128 143.034 159.724 140.988C157.57 139.158 157.104 136.932 157.032 135.748C156.924 133.846 157.498 132.159 158.79 130.759C161.482 127.852 167.224 126.237 175.371 126.13C176.089 126.13 176.699 125.555 177.13 124.945C185.564 112.025 185.564 81.1241 185.564 81.1241C192.563 86.7946 235.056 89.3787 244.638 86.9023C245.141 88.948 245.5 91.1732 245.715 93.5419C246.074 98.1716 246.469 102.622 246.828 106.893C250.201 147.161 252.283 171.494 239.506 180C228.56 187.322 207.852 187.393 207.636 187.393C207.134 187.393 206.667 187.645 206.38 188.075C206.093 188.506 206.057 189.044 206.272 189.475C210.4 198.591 224.504 201.175 225.079 201.283C225.15 201.283 225.258 201.318 225.33 201.318C226.012 201.318 226.658 200.816 226.765 200.098L229.062 187.932C229.098 187.788 229.098 187.645 229.098 187.501C233.405 186.352 237.64 184.702 241.085 182.405C255.298 172.894 253.18 147.951 249.699 106.57Z" fill="#000200"/>
<path d="M277.586 117.588C269.008 110.517 255.19 112.671 247.977 103.842C249.089 114.752 251.099 125.34 250.776 136.214C251.386 142.962 251.243 149.637 249.627 155.989C249.592 160.583 249.448 165.141 249.197 169.735C258.959 169.807 268.182 169.233 276.293 163.024C283.4 157.604 286.953 149.242 286.881 140.413C286.881 131.943 284.333 123.15 277.586 117.588Z" fill="#000200"/>
<path d="M316.49 251.026C316.31 251.026 316.131 250.99 315.987 250.919C315.234 250.632 313.726 252.57 314.013 251.816C325.857 220.125 329.805 193.926 322.914 184.738C319.11 179.678 307.374 162.343 315.772 151.863C317.566 149.602 319.146 148.49 320.438 148.059C319.253 146.731 318.823 144.865 319.361 142.927C320.186 139.876 323.345 134.026 328.297 131.442C330.989 130.006 333.753 129.791 336.516 130.76C345.13 133.739 346.96 140.235 347.032 140.522C347.247 141.312 346.781 142.137 345.991 142.317C345.202 142.532 344.376 142.065 344.197 141.276C344.125 141.06 342.653 136 335.583 133.56C333.609 132.878 331.635 133.057 329.697 134.062C325.857 136.108 322.986 141.025 322.232 143.716C321.801 145.26 322.555 146.229 323.345 146.623C324.314 147.09 325.929 146.946 327.364 144.972C329.41 142.245 332.748 141.168 335.475 142.317C337.413 143.106 341.684 146.264 339.89 157.929C338.921 164.245 336.373 166.434 334.399 167.152C332.066 168.014 329.266 167.26 326.862 165.178C324.708 163.312 322.842 160.19 323.452 157.39C324.098 154.411 323.309 151.397 322.232 150.858C321.586 150.535 320.151 151.145 318.069 153.73C312.47 160.728 318.105 173.433 325.247 182.98C332.855 193.136 330.236 216.967 317.889 250.093C317.674 250.632 317.1 251.026 316.49 251.026ZM325.175 149.674C326.575 151.72 326.934 155.129 326.288 157.965C326.001 159.292 327.077 161.41 328.764 162.917C330.307 164.281 332.03 164.819 333.322 164.353C335.045 163.707 336.337 161.266 336.911 157.462C338.095 149.602 336.337 145.87 334.255 145.008C332.784 144.362 330.846 145.08 329.625 146.731C328.262 148.561 326.682 149.423 325.175 149.674Z" fill="#000200"/>
<path d="M346.351 149.062C345.597 149.062 344.951 148.488 344.879 147.699C342.834 121.714 342.654 114.249 345.274 111.235C346.064 110.337 347.105 109.835 348.432 109.727C354.175 109.333 355.61 118.413 356.543 123.832L356.615 124.227C356.759 125.016 356.22 125.806 355.395 125.949C354.605 126.093 353.816 125.555 353.672 124.729L353.6 124.334C353.062 121.14 351.591 112.67 348.72 112.67C348.684 112.67 348.648 112.67 348.612 112.67C347.93 112.706 347.679 112.921 347.499 113.137C345.489 115.47 346.279 127.672 347.822 147.447C347.894 148.273 347.284 148.955 346.458 149.026C346.458 149.062 346.423 149.062 346.351 149.062Z" fill="#000200"/>
<path d="M356.686 148.273C355.932 148.273 355.286 147.699 355.214 146.909C353.169 120.925 352.989 113.46 355.609 110.445C356.399 109.548 357.439 109.045 358.767 108.938C364.043 108.651 365.335 116.08 366.125 121.033L366.34 122.396C366.484 123.186 365.945 123.976 365.12 124.119C364.294 124.263 363.541 123.724 363.397 122.899L363.182 121.499C362.608 117.874 361.639 111.881 359.054 111.881C359.019 111.881 358.983 111.881 358.947 111.881C358.265 111.917 358.014 112.132 357.834 112.347C355.824 114.68 356.614 126.883 358.157 146.658C358.229 147.483 357.619 148.165 356.793 148.237C356.793 148.273 356.758 148.273 356.686 148.273Z" fill="#000200"/>
<path d="M366.555 149.062C367.38 148.99 367.99 148.272 367.918 147.483C366.375 127.707 365.586 115.541 367.595 113.172C367.775 112.957 368.062 112.741 368.708 112.705H368.744C369.354 112.705 372.01 113.567 373.768 127.528C374.917 136.859 379.762 215.888 365.478 252.101C365.37 252.352 365.37 252.639 365.406 252.89C365.442 252.89 365.478 252.89 365.55 252.89C366.483 252.819 367.416 252.819 368.349 252.89C382.956 215.457 377.932 137.039 376.711 127.169C375.742 119.524 373.84 109.439 368.529 109.798C367.201 109.906 366.16 110.373 365.37 111.306C362.786 114.32 362.966 121.786 364.975 147.77C365.011 148.523 365.765 149.205 366.555 149.062Z" fill="#000200"/>
<path d="M351.554 182.836C349.652 176.771 345.884 172.5 340.536 169.162C338.921 168.157 337.449 170.705 339.029 171.71C343.694 174.617 346.996 178.314 348.683 183.626C349.293 185.42 352.128 184.63 351.554 182.836Z" fill="#000200"/>
<path d="M175.301 427.744C174.906 427.744 174.547 427.6 174.26 427.313C173.973 427.026 173.829 426.667 173.829 426.272V389.342C173.829 388.552 174.475 387.906 175.265 387.87L506.383 377.749C507.28 377.714 507.854 378.36 507.89 379.149L510.259 425.016C510.294 425.411 510.151 425.806 509.864 426.093C509.577 426.38 509.218 426.559 508.787 426.559L175.301 427.744ZM176.772 390.777V424.765L507.244 423.581L505.019 380.728L176.772 390.777Z" fill="#000200"/>
<path d="M298.509 415.434C298.114 415.434 297.72 415.255 297.432 414.968C297.145 414.645 297.002 414.25 297.038 413.819L298.222 400.899C298.294 400.145 298.904 399.571 299.622 399.571L379.512 396.664C379.548 396.664 379.548 396.664 379.584 396.664C380.338 396.664 380.948 397.202 381.055 397.956L382.814 412.061C382.85 412.491 382.742 412.886 382.455 413.209C382.168 413.532 381.773 413.712 381.378 413.712L298.509 415.434ZM301.021 402.478L300.124 412.456L379.656 410.769L378.256 399.643L301.021 402.478Z" fill="#000200"/>
<path d="M204.586 407.539H189.046C188.22 407.539 187.574 406.893 187.574 406.068V400.11C187.574 399.285 188.22 398.639 189.046 398.639H204.586C205.411 398.639 206.057 399.285 206.057 400.11V406.068C206.093 406.857 205.411 407.539 204.586 407.539ZM190.553 404.56H203.114V401.582H190.553V404.56Z" fill="#000200"/>
<path d="M489.372 415.435H436.506C435.716 415.435 435.07 414.825 435.035 414.035L434.281 399.68C434.245 399.285 434.424 398.854 434.712 398.567C434.999 398.28 435.394 398.136 435.824 398.136L452.118 398.818L452.046 388.733C452.046 388.338 452.19 387.944 452.477 387.692C452.764 387.405 453.123 387.262 453.518 387.262H472.898C473.616 387.262 474.226 387.764 474.334 388.446L476.451 399.536L490.412 398.639C490.843 398.603 491.274 398.782 491.561 399.069C491.848 399.392 492.027 399.787 491.991 400.218L490.807 414.071C490.807 414.861 490.161 415.435 489.372 415.435ZM437.942 412.492H488.044L488.977 401.689L475.41 402.551C474.693 402.622 474.011 402.084 473.867 401.366L471.75 390.205H455.097L455.169 400.361C455.169 400.756 455.025 401.151 454.702 401.438C454.415 401.725 454.02 401.833 453.625 401.869L437.367 401.223L437.942 412.492Z" fill="#000200"/>
<path d="M277.622 415.433H256.34C255.514 415.433 254.868 414.787 254.868 413.962V404.523C254.868 403.769 255.442 403.123 256.232 403.051L277.335 401.293C277.766 401.257 278.161 401.4 278.448 401.651C278.735 401.939 278.914 402.297 278.95 402.728L279.13 413.962C279.13 414.356 278.986 414.751 278.699 415.038C278.376 415.29 278.017 415.433 277.622 415.433ZM257.811 412.49H276.115L275.971 404.343L257.811 405.851V412.49V412.49Z" fill="#000200"/>
<path d="M248.084 415.435H230.247C229.421 415.435 228.775 414.789 228.775 413.964V406.032C228.775 405.207 229.421 404.561 230.247 404.561H247.94C248.73 404.561 249.412 405.207 249.412 405.996L249.555 413.928C249.555 414.323 249.412 414.717 249.125 415.004C248.874 415.292 248.479 415.435 248.084 415.435ZM231.718 412.492H246.577L246.505 407.539H231.718V412.492V412.492Z" fill="#000200"/>
<path d="M550.777 352.129H490.554C489.765 352.129 489.118 351.518 489.083 350.765L485.565 295.459C485.063 287.671 487.755 280.242 493.066 274.571C498.414 268.865 505.628 265.742 513.452 265.742H519.768C534.232 265.742 546.47 277.047 547.619 291.475L552.284 350.514C552.32 350.908 552.177 351.339 551.889 351.626C551.602 351.949 551.208 352.129 550.777 352.129ZM491.954 349.186H549.198L544.676 291.726C543.671 278.806 532.724 268.721 519.768 268.721H513.452C506.489 268.721 499.993 271.52 495.22 276.617C490.446 281.713 488.078 288.353 488.508 295.315L491.954 349.186Z" fill="#000200"/>
<path d="M546.578 298.69H546.542L487.001 296.824C486.176 296.788 485.53 296.106 485.566 295.316C485.602 294.491 486.248 293.917 487.073 293.881L546.614 295.747C547.44 295.783 548.086 296.465 548.05 297.254C548.014 298.08 547.368 298.69 546.578 298.69Z" fill="#000200"/>
<path d="M429.327 273.925H385.47C384.644 273.925 383.998 273.279 383.998 272.454C383.998 271.628 384.644 270.982 385.47 270.982H429.327C432.987 270.982 436.505 269.403 438.981 266.676C441.421 263.948 442.606 260.287 442.211 256.626C441.709 252.14 443.144 247.618 446.159 244.245C449.174 240.871 453.48 238.969 458.002 238.969H458.038L499.06 239.076C507.817 239.112 514.923 246.218 514.923 254.976V265.85C514.923 266.676 514.277 267.322 513.452 267.322C512.627 267.322 511.981 266.676 511.981 265.85V254.976C511.981 247.869 506.202 242.055 499.06 242.019L458.038 241.912H458.002C454.342 241.912 450.825 243.491 448.384 246.218C445.944 248.946 444.759 252.643 445.154 256.303C445.656 260.79 444.221 265.312 441.206 268.65C438.156 272.023 433.849 273.925 429.327 273.925Z" fill="#000200"/>
<path d="M525.869 297.757C525.187 297.757 524.577 297.291 524.434 296.573L518.332 267.502C518.153 266.713 518.691 265.923 519.481 265.744C520.271 265.564 521.06 266.102 521.24 266.892L527.341 295.963C527.52 296.752 526.982 297.542 526.192 297.721C526.049 297.757 525.977 297.757 525.869 297.757Z" fill="#000200"/>
</svg>
