<?xml version="1.0" encoding="utf-8"?>
<!-- Generator: Adobe Illustrator 23.1.0, SVG Export Plug-In . SVG Version: 6.00 Build 0)  -->
<svg version="1.1" id="Слой_1" xmlns="http://www.w3.org/2000/svg" xmlns:xlink="http://www.w3.org/1999/xlink" x="0px" y="0px"
	 viewBox="0 0 2122 2000" style="enable-background:new 0 0 2122 2000;" xml:space="preserve">
<style type="text/css">
	.st0{fill:#7BAEED;}
	.st1{fill:#F674B4;}
	.st2{fill:#FFCF58;}
	.st3{fill:#000200;}
	.st4{fill:#FFFFFF;}
</style>
<g id="Objects">
	<path class="st0" d="M274.8,934.7c-5.9-9.2-14.6-16-21.6-24.2c-4-4.7-10.7,2.1-6.8,6.8c6.5,7.6,14.7,13.8,20.1,22.2
		C269.9,944.6,278.1,939.9,274.8,934.7z"/>
	<path class="st1" d="M1460.4,1576.5l144-2.2l-3-130.9C1541.3,1469.9,1496.3,1519.4,1460.4,1576.5z"/>
	<path class="st0" d="M1415.4,236.1c-4,5.5-8.4,10.6-13.2,15.3c-4.4,4.3,2.4,11.1,6.8,6.8c5.4-5.3,10.2-11.1,14.7-17.2
		C1427.3,235.9,1419,231.1,1415.4,236.1z"/>
	<polygon class="st1" points="1383.7,824.1 1436.7,800 1427.5,850.4 	"/>
	<polygon id="BG" class="st2" points="1445.4,1470.1 290.3,1470.1 271.2,477.2 1426.3,448.6 1439.6,1124.9 1443.9,1345.5 
		1444.4,1371.3 	"/>
</g>
<g id="PC">
	<path class="st3" d="M334.7,1598.2c-2.6,0-4.7-2.1-4.8-4.7L301.3,342.9c0-1.3,0.5-2.5,1.4-3.4c0.9-0.9,2.1-1.4,3.4-1.4h1269.7
		c2.6,0,4.8,2.1,4.8,4.7l1.4,174c0,2.6-2.1,4.8-4.7,4.8c0,0,0,0,0,0c-2.6,0-4.8-2.1-4.8-4.7l-1.3-169.3H310.9l28.4,1241l1260.2-18.9
		l-6.2-265.5c-0.1-2.6,2-4.8,4.7-4.9c2.5-0.1,4.8,2,4.9,4.7l6.3,270.3c0,1.3-0.5,2.5-1.3,3.4c-0.9,0.9-2.1,1.4-3.4,1.5L334.7,1598.2
		C334.7,1598.2,334.7,1598.2,334.7,1598.2z"/>
	<path class="st4" d="M745.6,691.8H459c-9.4,0-17-7.6-17-17v-41.1c0-9.4,7.6-17,17-17l286.6,6.1c9.4,0,17,7.6,17,17v35
		C762.7,684.1,755,691.8,745.6,691.8z"/>
	<path class="st3" d="M479.6,499.5c0,9.4-3.7,17.3-17,17.3c-9.4,0-17-7.9-17-17.3s7.6-17,17-17S479.6,490.2,479.6,499.5z"/>
	<path class="st3" d="M462.7,521.6c-12,0-21.7-9.9-21.7-22.1c0-12,9.8-21.7,21.7-21.7c12,0,21.7,9.8,21.7,21.7
		C484.4,513.8,476.7,521.6,462.7,521.6z M462.7,487.3c-6.7,0-12.2,5.5-12.2,12.2c0,6.8,5.6,12.5,12.2,12.5c8.7,0,12.2-3.6,12.2-12.5
		C474.9,492.8,469.4,487.3,462.7,487.3z"/>
	<path class="st3" d="M529.6,521.6c-12,0-21.7-9.9-21.7-22.1c0-12,9.8-21.7,21.7-21.7c12,0,21.7,9.8,21.7,21.7
		C551.4,513.8,543.7,521.6,529.6,521.6z M529.6,487.3c-6.7,0-12.2,5.5-12.2,12.2c0,6.8,5.6,12.5,12.2,12.5c8.7,0,12.2-3.6,12.2-12.5
		C541.8,492.8,536.4,487.3,529.6,487.3z"/>
	<path class="st3" d="M477.9,1559.3c-28.3,0-51.2-23.4-51.2-52.2c0-28.3,23-51.2,51.2-51.2c28.3,0,51.2,23,51.2,51.2
		C529.1,1541.3,511.4,1559.3,477.9,1559.3z M477.9,1465.5c-23,0-41.7,18.7-41.7,41.7c0,23.1,19.1,42.6,41.7,42.6
		c28.4,0,41.7-13.5,41.7-42.6C519.6,1484.2,500.9,1465.5,477.9,1465.5z"/>
	<path class="st3" d="M592.4,521.6c-12,0-21.7-9.9-21.7-22.1c0-12,9.8-21.7,21.7-21.7s21.7,9.8,21.7,21.7
		C614.1,513.8,606.4,521.6,592.4,521.6z M592.4,487.3c-6.7,0-12.2,5.5-12.2,12.2c0,6.8,5.6,12.5,12.2,12.5c8.7,0,12.2-3.6,12.2-12.5
		C604.6,492.8,599.1,487.3,592.4,487.3z"/>
	<path class="st3" d="M580.3,781.1H462.7c-2.6,0-4.8-2.1-4.8-4.8s2.1-4.8,4.8-4.8h117.7c2.6,0,4.8,2.1,4.8,4.8
		S583,781.1,580.3,781.1z"/>
	<path class="st3" d="M537.8,844.7h-75.2c-2.6,0-4.8-2.1-4.8-4.8s2.1-4.8,4.8-4.8h75.2c2.6,0,4.8,2.1,4.8,4.8
		S540.5,844.7,537.8,844.7z"/>
	<path class="st3" d="M477.9,1522.2c-2.6,0-4.8-2.1-4.8-4.8v-72c0-2.6,2.1-4.8,4.8-4.8c2.6,0,4.8,2.1,4.8,4.8v72
		C482.7,1520.1,480.5,1522.2,477.9,1522.2z"/>
	<path class="st3" d="M982.9,1689.2h-62c-2.6,0-4.8-2.1-4.8-4.8v-99.8c0-2.6,2.1-4.8,4.8-4.8s4.8,2.1,4.8,4.8v95h52.2l-6.2-95.6
		c-0.2-2.6,1.8-4.9,4.5-5.1c2.7-0.2,4.9,1.8,5.1,4.5l6.5,100.6c0.1,1.3-0.4,2.6-1.3,3.6C985.5,1688.6,984.3,1689.2,982.9,1689.2z"/>
	<path class="st3" d="M979.5,1630.7l-3-46.9l-55.6,0.8v99.8h0.2C940.3,1666.2,959.6,1648.1,979.5,1630.7z"/>
	<path class="st3" d="M1144.1,1750H763c-1.8,0-3.5-1.1-4.3-2.7c-0.8-1.7-0.5-3.6,0.6-5.1c28.4-34.4,132.4-69.2,223.9-62.6
		c90.7,6.5,160.8,59.6,163.8,61.8c1.6,1.2,2.3,3.4,1.6,5.3C1148,1748.7,1146.2,1750,1144.1,1750z M774.6,1740.5h354.1
		c-24-15.4-80.1-46.5-146.1-51.3C902.4,1683.3,809.6,1711.1,774.6,1740.5z"/>
	<path class="st3" d="M1544,981.4c-2.6,0-4.7-2.1-4.8-4.7l-4.6-219.2c-0.1-2.6,2-4.8,4.7-4.9c0,0,0.1,0,0.1,0c2.6,0,4.7,2.1,4.8,4.7
		l4.6,219.2c0.1,2.6-2,4.8-4.7,4.9C1544.1,981.4,1544,981.4,1544,981.4z"/>
</g>
<g id="Man">
	<g id="Body">
		<path class="st4" d="M1256.5,1426l-859.8,5.1l-1.6-357.6c0,0,252.6-217.8,498.7-191.3c0-5.3-1.9-140.5-2-154.4
			c-0.1-6.1-13.2-4.9-17.8-6.1c0,0-20.2-9.7-28.8-19.5c-2.5-7.1-2.5-22.2-2.6-29.6c19.2-15.3,22.4-15.2,45.2-25.1
			c7.1-3.1,18.7-139.7,70.7-152.9c1.8-0.4,192.5,0,204.1,42c-1,1.7,0.9,173.3,2.8,242.4c-10.8,72.1-43.4,83.7-84.1,100.4
			c1,6.8-2.7,17.2-1.7,24c17-0.7,121.3,62.4,168.6,110.3c18.8,19,39.8,37.9,54.8,60.3c16.4,14,32.5,26.5,50.9,36.6
			c33.2,18.4,66.4,16.1,90,10.3v224.5c-187.7,0-296.6-127.5-296.6-127.5l-11.9,52.7C1308.8,1347.3,1256.5,1426,1256.5,1426z"/>
		<path class="st3" d="M887.7,877.2c-34.6-2.6-187-7.8-337.4,86.9c-74.2,46.7-163,105.4-164.8,119.2c-0.2,1.4,0.3,3.2,1.3,4.3
			c0.9,1,2.2,1.5,3.5,1.5c1.2,0,2.3-0.4,3.3-1.3c0.9-0.8,1.4-1.9,1.5-3c2.1-3.4,19.5-23.9,160.4-112.6
			c167.2-105.3,336.7-85,338.4-84.8c1.2,0.1,2.4-0.2,3.4-0.9C894.1,883.2,890.9,880.2,887.7,877.2z"/>
		<path class="st3" d="M1136.3,1270.7c-0.3,0-0.5,0-0.8-0.1c-2.6-0.4-4.4-2.9-3.9-5.5c0.1-0.6,9.8-58.4,37.7-119
			c1.1-2.4,3.9-3.5,6.3-2.3c2.4,1.1,3.4,3.9,2.3,6.3c-27.3,59.4-37.3,118.3-37.4,118.9C1140.2,1271.4,1138.6,1270.7,1136.3,1270.7z"
			/>
		<path class="st3" d="M1436.7,1512.4h-53c-2.6,0-4.8-2.1-4.8-4.8c0-2.6,2.1-4.8,4.8-4.8h53c2.6,0,4.8,2.1,4.8,4.8
			C1441.5,1510.3,1439.3,1512.4,1436.7,1512.4z"/>
	</g>
	<g id="Head">
		<path class="st3" d="M910.8,648.5c-31.3-1.6-53.4,3.5-65.6,15c-8.5,8.1-10.3,17.5-10.3,24c0,9.7,4,18.9,11.2,25.8
			c6.4,6.1,18.3,13.2,39.5,13.4l3.8,150.6c-2.5-0.2-5.9-0.4-10-0.7c2.1,3.4,4.3,6.7,6.6,10c4.8,0.4,7.5,0.7,7.7,0.7
			c1.4,0.2,2.8-0.3,3.8-1.2c1-0.9,1.6-2.3,1.6-3.7L895,721.7c0-1.3-0.6-2.5-1.5-3.4c-0.9-0.9-2.2-1.3-3.5-1.3
			c-16.5,0.7-29.4-3-37.3-10.6c-7.2-6.9-8.2-14.8-8.2-18.9c0-6.7,2.5-12.5,7.3-17.1c10.1-9.6,30.3-13.9,58.5-12.4
			c2.4,0.1,4.9-1.9,5-4.5C915.5,650.9,913.5,648.6,910.8,648.5z"/>
		<path class="st3" d="M1080.9,717.6c-2.6,0-4.8-2.1-4.8-4.8s2.1-4.8,4.8-4.8c8.9,0,16.3-2.4,19.7-6.4c1.9-2.3,2.6-5,2-8.4
			c-1.3-7.5-18-11.7-26-12.6c-2.4-0.3-4.3-2.3-4.3-4.7v-43.7c0-2.6,2.1-4.8,4.8-4.8c2.6,0,4.8,2.1,4.8,4.8v39.6
			c8.9,1.6,27.8,6.5,30.1,19.9c1,6.2-0.4,11.7-4.1,16.1C1102.5,714.1,1093,717.6,1080.9,717.6z"/>
		<path class="st3" d="M1020.8,659.4c-1,0-2-0.3-2.9-1c-8.4-6.4-28.9-11.8-36-13.3c-2.6-0.6-4.2-3.1-3.7-5.7
			c0.6-2.6,3.1-4.2,5.7-3.7c1.1,0.2,28,6.1,39.8,15.1c2.1,1.6,2.5,4.6,0.9,6.7C1023.7,658.8,1022.3,659.4,1020.8,659.4z"/>
		<path class="st3" d="M1112.6,642.8v9.5c0,12.3,19.1,12.3,19.1,0v-9.5C1131.7,630.5,1112.6,630.5,1112.6,642.8z"/>
		<path class="st3" d="M1001.3,596.7c-7.7,1.7-15.1,3.7-22.3,6.8c-5.6,2.4-0.8,10.7,4.8,8.2c6.4-2.8,13.2-4.4,20-5.9
			C1009.8,604.6,1007.3,595.4,1001.3,596.7z"/>
		<path class="st3" d="M1134.1,595c-4.9-3.3-10.3-5.7-14.9-9.3c-4.8-3.8-11.6,2.9-6.8,6.8c5.3,4.2,11.3,7.1,16.8,10.8
			C1134.4,606.7,1139.2,598.5,1134.1,595z"/>
		<path class="st3" d="M1021.3,760.8c-7.1-1.1-16.6-4.4-17.1-12.9c-0.4-6.1-9.9-6.1-9.5,0c0.8,13,12.2,20.2,24.1,22.1
			C1024.7,770.9,1027.3,761.7,1021.3,760.8z"/>
		<path class="st3" d="M1007.7,1010.9c-76,0-134.1-53.6-138.4-128c-0.2-2.6,1.9-4.9,4.5-5c2.6-0.1,4.9,1.9,5,4.5
			c4.1,71,57.8,120.1,130.8,119c37.2-0.5,59.5-15.5,71.7-28.1c13.8-14.3,21.9-33.3,21.5-50.8c-0.1-2.6,2-4.8,4.7-4.9
			c0,0,0.1,0,0.1,0c2.6,0,4.7,2.1,4.8,4.7c0.4,20.3-8.4,41.3-24.2,57.6c-13.4,13.9-37.9,30.5-78.4,31
			C1009,1010.9,1008.4,1010.9,1007.7,1010.9z"/>
		<path class="st3" d="M1171.2,607.5c-0.3-14.8-0.6-30.3-0.8-46.3c-1.2-75.3-49.5-113.5-143.6-113.5c-107.5,0-157.5,41-157.5,128.9
			V653c0,2.6,2.1,4.8,4.8,4.8c2.2,0,4-1.5,4.6-3.5c13.9-1.1,19.9,2.2,35.4,2.1c5.9-4.1,6.1-98.5,31.2-120
			c44.4-38.1,177.2-25.4,212.2-4.2c2.1,8.9,3.2,18.6,3.4,29.1c0.3,16,0.6,31.5,0.8,46.3c2.7,140,4.4,224.6-41.8,251.2
			c-39.6,22.9-111.2,18.5-111.9,18.5c-1.7-0.1-3.2,0.6-4.1,1.9c-1,1.3-1.2,3-0.6,4.5c12.2,32.4,70.4,45,72.9,45.6
			c0.3,0.1,0.7,0.1,1,0.1c1.1,0,2.1-0.4,3-1.1c1.1-0.9,1.8-2.3,1.8-3.7v-42.2c0-0.1,0-0.3,0-0.4c15.2-3,30.3-7.7,42.8-14.9
			C1175.7,837.7,1174,751.1,1171.2,607.5z"/>
	</g>
	<g id="Hand_2">
		<path class="st3" d="M779,1248.5c-4.9-11.9-29.8-29.5-54-29.5c-19.2,0-31.6,4.8-39.5,10.6c0,0,0-0.1,0-0.1
			c-0.4-0.7-9.2-16.9-43.7-27.2c-8.5-2.5-17.3-3.3-26.2-2.9l30.8-28.4c1.9-1.8,2.1-4.8,0.3-6.7c-1.8-1.9-4.8-2.1-6.7-0.3l-40.6,37.5
			c-40.8,8.2-78.4,36.4-80.5,38c-2.1,1.6-2.5,4.6-0.9,6.7c0.9,1.2,2.4,1.9,3.8,1.9c1,0,2-0.3,2.9-1c0.7-0.5,66.4-49.9,114.6-35.7
			c30.2,8.9,37.9,22.4,38,22.4c0.4,0.8,1,1.4,1.8,1.9c-5.8,6.7-7.1,13-7.2,13.6c-0.5,2.6,1.2,5,3.8,5.5c2.6,0.5,5.1-1.2,5.6-3.7
			c0.2-0.9,5.2-22.7,44-22.7c20.4,0,41.8,15.5,45.2,23.6c0.8,1.8,2.5,2.9,4.4,2.9c0.6,0,1.2-0.1,1.8-0.4
			C778.8,1253.7,780,1250.9,779,1248.5z"/>
		<path class="st3" d="M740.8,1431.1c-1.9,0-3.8-1.2-4.5-3.1c-27.3-72.9,6.4-140,17.4-158.9c6.1-10.4,19.8-28.2,32.8-28.5
			c3.7,0,8.5,1.1,12.4,7c3.7,5.7-0.8,14.3-8.9,30c-7.3,14-16.3,31.5-21,50.1c-9.8,38.9-3.5,82.1,5.3,96c1.4,2.2,0.8,5.2-1.5,6.6
			c-2.2,1.4-5.2,0.8-6.6-1.5c-11-17.4-16.4-64.1-6.5-103.4c5-19.7,14.7-38.5,21.8-52.2c4.2-8.1,9.5-18.3,9.1-20.9
			c-1.3-1.9-2.8-2.2-3.9-2.1c-6.8,0.2-18.1,12.5-24.7,23.8c-10.5,17.9-42.6,81.8-16.7,150.7c0.9,2.5-0.3,5.2-2.8,6.1
			C741.9,1431,741.3,1431.1,740.8,1431.1z"/>
		<path class="st3" d="M1258.7,1380.7c-2.6,0-4.8-2.1-4.8-4.8c0-12.6,0-36.2-88.6-86c-50.1-28.1-151.6-27.9-249.6-27.8
			c-40.5,0.1-82.4,0.1-121-1.7c-2.6-0.1-4.7-2.4-4.5-5c0.1-2.6,2.5-4.7,5-4.5c38.4,1.8,80.2,1.8,120.6,1.7
			c103.9-0.1,202-0.3,254.3,29.1c86.3,48.5,93.5,74.1,93.5,94.3C1263.4,1378.6,1261.3,1380.7,1258.7,1380.7z"/>
		<path class="st3" d="M1260.1,1419.7c-0.9,0-1.8-0.3-2.6-0.8c-2.2-1.5-2.8-4.4-1.3-6.6c3.5-5.2,4.2-11.6,2.1-19.1
			c-3.5-12.4-20.5-45.6-104.1-84.9c-2.4-1.1-3.4-4-2.3-6.4c1.1-2.4,4-3.4,6.4-2.3c62.3,29.3,101.1,61.6,109.2,90.9
			c2.8,10.1,1.6,19.4-3.4,26.9C1263.1,1418.9,1261.6,1419.7,1260.1,1419.7z"/>
		<path class="st3" d="M1256.8,1431.1c-0.6,0-1.1-0.1-1.7-0.3c-2.5-0.9-3.7-3.7-2.8-6.1c5.1-13.7-10.7-40.9-115.2-92.8
			c-2.4-1.2-3.3-4-2.2-6.4c1.2-2.4,4-3.3,6.4-2.2c91.5,45.5,129.7,78.7,119.9,104.6C1260.6,1429.9,1258.8,1431.1,1256.8,1431.1z"/>
		<path class="st3" d="M1225.1,1431.1c-0.4,0-0.9-0.1-1.4-0.2c-2.5-0.7-4-3.4-3.2-5.9c5.2-17.8-33.8-30.6-65.2-41
			c-11.6-3.8-22.5-7.4-31.5-11.2c-2.4-1-3.6-3.8-2.5-6.3c1-2.4,3.8-3.5,6.3-2.5c8.6,3.6,19.3,7.2,30.7,10.9
			c37.1,12.2,79.2,26.1,71.4,52.8C1229,1429.8,1227.1,1431.1,1225.1,1431.1z"/>
	</g>
	<g id="Lens">
		<path class="st4" d="M1733.6,480.5l-536.2,131.4c0,0-14.5,33.2-7.3,48.1c7.1,14.9,8.7,27,8.7,27l568.1-30c0,0,57.6-24.7,55.8-95.8
			s-29.3-87.1-38.4-91.7C1775.1,465,1754,459.4,1733.6,480.5z"/>
		<path class="st3" d="M1787.9,488.1c-7.7-4.3-16.4-6-25.7-6c-29.8,0-53.9,35.4-53.9,79.2c0,15.7,3.2,30.4,8.6,42.7
			C1739.1,564.5,1761.5,525,1787.9,488.1z"/>
		<path class="st3" d="M1731.3,626.2c8.7,9,19.4,14.3,30.8,14.3c29.8,0,53.9-35.4,53.9-79.2c0-25.9-4.3-43.9-11.5-56.2
			C1777.3,543.5,1754.5,585,1731.3,626.2z"/>
		<path class="st3" d="M1762.2,662.1c-38.7,0-70.1-45.2-70.1-100.8c0-55.6,31.5-100.8,70.1-100.8c46.5,0,70.1,33.9,70.1,100.8
			C1832.3,616.9,1800.8,662.1,1762.2,662.1z M1762.2,470.1c-33.4,0-60.6,40.9-60.6,91.2s27.2,91.2,60.6,91.2
			c33.4,0,60.6-40.9,60.6-91.2C1822.8,499.9,1802.9,470.1,1762.2,470.1z"/>
		<path class="st3" d="M1198.6,687.1c-1.6,0-3.1-0.8-4-2.2c-16.4-25.3-16.3-49.3,0.2-71.2c0.6-0.9,1.6-1.5,2.6-1.7l533.8-140.6
			c2.6-0.7,5.2,0.9,5.8,3.4c0.7,2.5-0.8,5.2-3.4,5.8l-532.1,140.2c-12.6,17.6-12.7,36.2-0.3,56.7l274-12.1c2.5-0.1,4.9,1.9,5,4.6
			c0.1,2.6-1.9,4.9-4.6,5L1198.8,687C1198.8,687.1,1198.7,687.1,1198.6,687.1z"/>
		<path class="st3" d="M1197.3,670.2l-11.5-20.5l10.6-20.5c0.9-1.7,0.7-3.6-0.5-5.1c-1.1-1.5-3-2.1-4.8-1.7l-44.5,10.2
			c-1.6,0.4-2.9,1.5-3.4,3c-0.4,1-8.6,24.1,0.4,39.3c0.9,1.5,2.4,2.3,4.1,2.3h45.4c1.7,0,3.3-0.9,4.1-2.4
			C1198.1,673.5,1198.1,671.6,1197.3,670.2z"/>
		<path class="st3" d="M1581.1,670.1c-2.5,0-4.7-2-4.8-4.6c-0.1-2.6,1.9-4.9,4.6-5l181-8c2.4-0.1,4.9,1.9,5,4.6
			c0.1,2.6-1.9,4.9-4.6,5l-181,8C1581.3,670.1,1581.2,670.1,1581.1,670.1z"/>
	</g>
	<g id="Hand">
		<path class="st4" d="M1436.1,1119.6c33.6-14.6,59.2-18.6,68.3-48.8c9.2-30.2,26.9-72.1,44.3-94.3c0,0-2.5-29.1,14.8-32.2
			c0,0,18.8-39.7,4.1-105.5c-14.6-65.8-32.2-83.3-62.9-115.5c-30.7-32.2-36.6-64.3-27.8-84.8c8.8-20.5,37.6-72.7,52.4-71.5
			s28,15.9,17.8,32c-10.2,16.1-26.2,22.8-14.6,37c11.6,14.2,33.1,15.7,49.1,31.7c38.2,1.4,74.9-1.4,74.9-1.4s76.2,114,89.3,198.8
			c13.2,84.8,13.8,117,13.8,117s17.1,11.1,14,23.4s-11.7,14.6-11.7,14.6s-11.7,122.8-42.4,160.8s-95.6,129.5-164,146.6
			c-68.4,17.1-121.1,15.7-126.9,15.7S1436.1,1119.6,1436.1,1119.6z"/>
		<path class="st3" d="M1407.5,1129.5c-35.6,0-75.8-20.3-136.6-83.7c-81.6-85.1-129-118.6-195.1-137.8c-2.5-0.7-4-3.4-3.2-5.9
			c0.7-2.5,3.3-4,5.9-3.2c68,19.8,116.4,53.9,199.4,140.3c86,89.7,126.9,86.4,161.4,75.3c51.3-16.5,65-43.4,65.2-43.7
			c1.2-2.4,4-3.4,6.4-2.2c2.4,1.1,3.4,4,2.2,6.3c-0.6,1.2-15.2,30.7-70.8,48.6C1430.8,1127.2,1419.4,1129.5,1407.5,1129.5z"/>
		<path class="st3" d="M1762.2,991.1C1762.1,991.1,1762.1,991.1,1762.2,991.1c-2.7-0.1-4.8-2.2-4.8-4.9
			c2.2-107.4-29.7-206.6-103.6-321.7c-1.4-2.2-0.8-5.2,1.4-6.6c2.2-1.4,5.2-0.8,6.6,1.4c74.9,116.8,107.4,217.7,105.1,327
			C1766.9,989,1764.8,991.1,1762.2,991.1z"/>
		<path class="st3" d="M1438.7,1353.6c-102.7,0-201.4-44.2-294.2-131.8c-1.9-1.8-2-4.8-0.2-6.7c1.8-1.9,4.8-2,6.7-0.2
			c106.2,100.2,220,142.5,338.2,125.6c152.6-28.6,268-167.2,268.2-322.4c0-2.6,2.2-4.7,4.8-4.8c2.6,0,4.8,2.1,4.8,4.8
			c-0.3,159.7-119,302.4-276.2,331.8C1473.3,1352.4,1455.9,1353.6,1438.7,1353.6z"/>
		<path class="st3" d="M1516,1129.6c-2.3,0-4.4-1.7-4.7-4.1l-1.1-6.7c-5.7-34.9-16.3-99.9,38.3-154.2c1.9-1.9,4.9-1.9,6.7,0
			c1.9,1.9,1.9,4.9,0,6.7c-51.1,50.8-41,112.7-35.6,145.9l1.1,6.7c0.4,2.6-1.4,5-4,5.4C1516.5,1129.6,1516.3,1129.6,1516,1129.6z"/>
		<path class="st3" d="M1220.7,1282.8c-0.7-0.6-1.4-1.2-2.3-2c-38.8-33.8-50.9-107.6-50.9-107.6s-1.9-1.4-12.7,22
			c-10.8,23.4,0,31.8,0,31.8s47.7,40.8,65.6,56L1220.7,1282.8z"/>
		<path class="st3" d="M1569.7,946c-0.3,0-0.7,0-1-0.1c-2.6-0.5-4.2-3.1-3.7-5.7c7.7-36.5-2.9-152.3-29.1-179.6l-1.1-1.1
			c-33.9-35.3-76.2-79.3-64.8-118.1c9.1-31,38-67.2,59.4-74.4c9.1-3.1,15.2-0.7,18.7,1.9c12.2,9,7.4,29.1-14.4,60
			c-1.5,2.1-1.9,4.7-1.1,7.1c0.8,2.4,2.6,4.3,5.1,5.1c28.2,9.6,78.9,31.3,101.8,69.2c1.4,2.3,0.7,5.2-1.6,6.6
			c-2.2,1.4-5.2,0.7-6.6-1.6c-21.4-35.3-69.8-55.9-96.8-65.1c-5.3-1.8-9.4-5.9-11.1-11.2c-1.7-5.3-0.8-11,2.4-15.5
			c16.9-23.9,23.2-41.8,16.5-46.7c-2.5-1.8-5.8-2-10-0.6c-18.6,6.3-45,40-53.3,68.1c-9.8,33.4,32,77,62.5,108.8l1.1,1.1
			c30.6,31.9,39.1,152.5,31.5,188.2C1573.9,944.5,1571.9,946,1569.7,946z"/>
		<path class="st3" d="M1691.2,1038.1c-28.1,0-58.5-4.9-84.3-14.9c-35.7-13.9-56.4-35.1-59.8-61.4c-1.6-12,4.6-23.9,13.7-26.6
			c2.7-0.8,12.2-2.3,18.8,11.7l0,0c9.4,19.9,26.5,34,50.8,41.9c51.7,16.8,116,0.7,129.4-6.6c1.5-0.9,3.4-0.8,4.9,0.2
			c1.3,0.9,13,8.7,13.7,19.8c0.3,4-0.9,9.9-7.8,15.7C1754.8,1031.2,1724.5,1038.1,1691.2,1038.1z M1564.4,944.2
			c-0.3,0-0.6,0-0.9,0.1c-3.6,1-8,7.9-6.9,16.2c3.7,28.5,31.3,45,53.8,53.7c52.6,20.5,127.5,18.7,154.2-3.7c3.1-2.6,4.5-5.2,4.4-7.8
			c-0.3-4.2-4.3-8.4-7.3-10.8c-21.2,9.6-85.1,21.8-134.1,6c-27-8.7-46-24.5-56.5-46.9l0,0C1570,948.8,1567.5,944.2,1564.4,944.2z"/>
	</g>
</g>
<path id="Frame" class="st3" d="M1551.9,1431.1H396.7c-2.6,0-4.7-2.1-4.8-4.7l-19.1-992.8c-0.1-2.6,2-4.8,4.7-4.9l1155.1-28.6
	c1.3,0.1,2.5,0.5,3.4,1.3c0.9,0.9,1.4,2.1,1.5,3.4l2.3,123.1c0,2.6-2,4.8-4.7,4.9c-2.5,0.1-4.8-2.1-4.9-4.7l-2.2-118.3L382.5,438.1
	l18.9,983.4h1145.6l-0.9-93.9c0-2.6,2.1-4.8,4.7-4.8c0,0,0,0,0,0c2.6,0,4.8,2.1,4.8,4.7l0.9,98.7c0,1.3-0.5,2.5-1.4,3.4
	C1554.4,1430.6,1553.2,1431.1,1551.9,1431.1z"/>
</svg>
