<svg width="1128" height="856" viewBox="0 0 1128 856" fill="none" xmlns="http://www.w3.org/2000/svg">
<path d="M902.326 496.376C857.385 517.11 817.075 546.79 782.185 581.838C752.821 611.36 723.93 649.46 718.194 691.454L954.109 690.665L964.16 474.537C943.058 479.852 922.376 487.167 902.326 496.376Z" fill="#FFDD00"/>
<path d="M143.591 250.779L173.06 533.476L479.544 527.583V506.691V419.545V265.304L143.591 250.779Z" fill="#A1DAF8"/>
<path d="M493.804 207.838C493.489 207.838 493.12 207.733 492.805 207.575C491.857 207.049 491.489 205.786 492.068 204.839C494.068 201.313 496.225 197.84 498.383 194.472C498.962 193.525 500.225 193.262 501.172 193.893C502.119 194.472 502.382 195.735 501.751 196.682C499.646 199.997 497.541 203.418 495.541 206.891C495.173 207.47 494.489 207.838 493.804 207.838Z" fill="#E30613"/>
<path d="M514.224 177.79C513.803 177.79 513.329 177.632 512.961 177.369C512.119 176.685 511.961 175.422 512.645 174.58C517.855 168.107 523.38 161.95 529.064 156.319C529.853 155.53 531.116 155.53 531.905 156.319C532.695 157.108 532.695 158.371 531.905 159.161C526.327 164.686 520.907 170.685 515.802 177.053C515.381 177.579 514.803 177.79 514.224 177.79ZM704.039 147.899C703.566 147.899 703.092 147.741 702.724 147.373C696.514 141.9 690.094 137.006 683.621 132.954C682.674 132.375 682.411 131.112 682.989 130.165C683.568 129.218 684.831 128.954 685.779 129.533C692.462 133.743 699.04 138.743 705.407 144.373C706.249 145.11 706.302 146.373 705.565 147.215C705.144 147.636 704.565 147.899 704.039 147.899ZM548.798 143.794C548.219 143.794 547.587 143.531 547.219 143.005C546.535 142.11 546.745 140.847 547.587 140.216C554.323 135.111 561.27 130.638 568.216 126.849C569.163 126.323 570.426 126.692 570.952 127.639C571.479 128.639 571.11 129.849 570.163 130.375C563.375 134.059 556.586 138.427 550.008 143.373C549.64 143.689 549.219 143.794 548.798 143.794ZM662.94 122.376C662.729 122.376 662.466 122.324 662.255 122.271C654.73 119.429 646.942 117.43 639.206 116.43C638.101 116.272 637.364 115.272 637.47 114.167C637.627 113.062 638.627 112.273 639.732 112.43C647.784 113.536 655.835 115.535 663.676 118.535C664.729 118.903 665.255 120.061 664.834 121.113C664.518 121.903 663.782 122.376 662.94 122.376ZM591.476 121.008C590.634 121.008 589.845 120.482 589.581 119.64C589.266 118.587 589.792 117.482 590.897 117.114C598.896 114.535 607 112.799 615.052 112.009C616.104 111.904 617.157 112.694 617.262 113.799C617.367 114.904 616.578 115.904 615.473 116.009C607.737 116.798 599.896 118.43 592.16 120.956C591.897 121.008 591.686 121.008 591.476 121.008Z" fill="#E30613"/>
<path d="M728.825 174.528C728.246 174.528 727.615 174.265 727.246 173.739C724.826 170.634 722.247 167.529 719.668 164.53C718.932 163.688 719.037 162.425 719.879 161.688C720.721 160.951 721.984 161.057 722.721 161.898C725.352 164.951 727.93 168.108 730.456 171.266C731.141 172.16 730.983 173.423 730.088 174.055C729.667 174.37 729.246 174.528 728.825 174.528Z" fill="#E30613"/>
<path d="M653.046 254.306C645.942 245.886 638.838 237.466 631.733 229.046C630.049 227.046 627.26 229.941 628.892 231.888C635.996 240.308 643.1 248.727 650.204 257.147C651.888 259.147 654.73 256.253 653.046 254.306Z" fill="#2D8CFC"/>
<path d="M637.047 282.352C633.153 280.037 629.311 277.721 625.417 275.353C623.207 274.037 621.207 277.511 623.417 278.826L635.047 285.825C637.257 287.141 639.257 283.668 637.047 282.352Z" fill="#2D8CFC"/>
<path d="M322.46 164.371C318.198 158.53 313.935 152.741 309.673 146.9C308.147 144.848 304.673 146.848 306.199 148.9C310.462 154.741 314.725 160.53 318.987 166.371C320.513 168.476 323.986 166.476 322.46 164.371Z" fill="#2D8CFC"/>
<path d="M257.101 608.836L262.889 622.518L274.993 608.836H257.101Z" fill="#FFDD00"/>
<path d="M388.611 404.596L387.348 360.076L297.202 355.445H241.842L262.786 464.009L390.558 469.64L388.611 404.596Z" fill="white"/>
<path d="M330.566 398.597C330.145 398.597 329.777 398.492 329.408 398.229L266.101 353.762C265.207 353.13 264.996 351.867 265.628 350.973C266.259 350.078 267.522 349.867 268.417 350.499L330.619 394.177L393.241 353.762L309.306 349.446C308.201 349.394 307.359 348.447 307.411 347.341C307.464 346.236 308.253 345.289 309.516 345.447L399.609 350.13C400.504 350.183 401.24 350.762 401.451 351.604C401.661 352.446 401.345 353.341 400.609 353.814L331.618 398.282C331.303 398.492 330.934 398.597 330.566 398.597Z" fill="#000200"/>
<path d="M398.821 397.019L400.663 459.537L276.627 454.011C273.417 436.119 260.735 366.181 258.893 362.445C258.419 361.445 257.262 361.077 256.262 361.55C255.262 362.024 254.841 363.182 255.262 364.182C256.683 367.497 266.629 421.068 272.944 456.274C273.101 457.169 273.891 457.905 274.838 457.905L402.61 463.589C402.662 463.589 402.662 463.589 402.715 463.589C403.241 463.589 403.767 463.378 404.136 463.01C404.557 462.642 404.767 462.063 404.715 461.536L402.82 397.545C401.557 397.282 400.189 397.072 398.821 397.019Z" fill="#000200"/>
<path d="M399.556 377.809C398.451 377.809 397.557 376.915 397.557 375.81V352.129C397.557 351.024 398.451 350.129 399.556 350.129C400.661 350.129 401.556 351.024 401.556 352.129V375.81C401.556 376.915 400.661 377.809 399.556 377.809Z" fill="#000200"/>
<path d="M274.995 458.011C274.574 458.011 274.206 457.906 273.838 457.643C272.943 457.011 272.733 455.749 273.364 454.854L319.673 388.916C320.305 388.021 321.568 387.811 322.462 388.442C323.357 389.074 323.568 390.337 322.936 391.231L276.627 457.169C276.206 457.696 275.627 458.011 274.995 458.011Z" fill="#000200"/>
<path d="M402.713 463.695C402.081 463.695 401.502 463.431 401.081 462.853L345.51 387.074C344.879 386.179 345.037 384.916 345.931 384.285C346.826 383.653 348.089 383.811 348.72 384.706L404.292 460.485C404.923 461.379 404.765 462.642 403.871 463.274C403.555 463.537 403.134 463.695 402.713 463.695Z" fill="#000200"/>
<path d="M323.62 486.214C322.778 486.214 321.936 486.161 321.095 486.056C306.465 484.635 305.623 483.267 302.413 456.166L301.781 450.798C299.676 433.59 298.729 425.696 302.413 422.223C304.57 420.118 307.728 420.381 309.886 420.749C321.568 422.696 321.779 425.959 323.357 447.482C323.41 448.588 322.621 449.535 321.515 449.64C320.41 449.693 319.463 448.903 319.358 447.798C317.779 426.117 317.621 426.117 309.254 424.696C306.202 424.17 305.465 424.907 305.202 425.117C302.992 427.222 304.097 436.431 305.781 450.324L306.412 455.692C309.412 480.846 309.412 480.846 321.41 482.057C324.673 482.372 326.462 482.109 327.409 481.109C330.567 477.899 329.041 464.638 325.936 438.168L324.726 427.801C324.62 426.696 325.41 425.696 326.515 425.591C327.567 425.486 328.62 426.275 328.725 427.38L329.935 437.747C333.566 468.848 334.777 479.373 330.251 483.951C328.462 485.74 326.041 486.214 323.62 486.214Z" fill="#000200"/>
<path d="M787.819 356.923C782.767 356.923 778.715 355.449 776.504 352.818C774.926 350.976 774.347 348.608 774.768 346.029C775.715 340.399 783.661 338.346 787.398 337.662V321.033C787.398 319.928 788.292 319.033 789.397 319.033C790.502 319.033 791.397 319.928 791.397 321.033V339.399C791.397 340.399 790.608 341.293 789.608 341.398C786.292 341.767 779.241 343.556 778.715 346.714C778.451 348.134 778.767 349.292 779.556 350.239C780.977 351.923 784.082 352.923 787.819 352.923C788.924 352.923 789.818 353.818 789.818 354.923C789.818 356.028 788.924 356.923 787.819 356.923Z" fill="#000200"/>
<path d="M776.398 317.665V321.664C776.398 326.821 768.399 326.821 768.399 321.664V317.665C768.399 312.508 776.398 312.508 776.398 317.665Z" fill="#000200"/>
<path d="M824.707 317.665V321.664C824.707 326.821 816.708 326.821 816.708 321.664V317.665C816.656 312.508 824.707 312.508 824.707 317.665Z" fill="#000200"/>
<path d="M823.181 298.301C826.391 298.985 829.549 299.879 832.549 301.195C834.917 302.195 832.864 305.668 830.549 304.668C827.865 303.51 824.971 302.826 822.129 302.195C819.603 301.616 820.655 297.722 823.181 298.301Z" fill="#000200"/>
<path d="M767.4 297.617C769.452 296.248 771.715 295.248 773.662 293.722C775.662 292.144 778.503 294.985 776.504 296.564C774.293 298.301 771.767 299.511 769.452 301.09C767.294 302.511 765.295 299.037 767.4 297.617Z" fill="#000200"/>
<path d="M815.603 376.604C818.602 376.131 822.602 374.762 822.812 371.184C822.97 368.605 826.97 368.605 826.812 371.184C826.496 376.657 821.655 379.656 816.655 380.446C814.129 380.867 813.024 377.025 815.603 376.604Z" fill="#000200"/>
<path d="M812.5 257.885C808.921 261.621 805.343 265.305 801.764 269.041C799.975 270.883 802.817 273.724 804.606 271.883L815.341 260.726C817.131 258.832 814.289 255.99 812.5 257.885Z" fill="white"/>
<path d="M954.794 398.022C948.742 383.234 939.112 370.499 930.429 357.185C920.746 342.293 915.379 327.137 910.748 310.139C906.696 295.352 900.96 282.091 889.488 271.566C882.436 265.04 873.49 260.304 864.333 256.252C853.493 248.832 837.916 245.201 817.235 245.201C777.714 245.201 757.453 261.252 756.927 292.826C756.822 299.562 756.717 306.035 756.559 312.244C755.401 372.552 754.664 408.915 776.135 421.282C781.397 424.334 787.712 426.281 794.08 427.544C794.027 427.912 808.867 456.908 808.867 456.908C809.183 457.54 809.867 457.961 810.551 458.013C810.604 458.013 810.604 458.013 810.657 458.013C811.341 458.013 811.972 457.645 812.341 457.066C812.762 456.435 822.287 441.068 827.075 428.333C827.338 427.702 827.233 426.965 826.812 426.439C826.391 425.913 825.76 425.544 825.076 425.65C824.76 425.65 794.764 427.491 778.082 417.914C758.716 406.705 759.401 371.236 760.506 312.402C760.611 306.193 760.769 299.667 760.874 292.931C760.927 288.09 761.506 283.617 762.611 279.617C777.714 277.881 791.344 272.092 805.973 267.987C812.919 268.093 819.761 269.04 826.339 271.513C842.494 277.723 846.809 290.616 850.704 305.982C852.598 313.56 857.282 326.769 863.491 332.084C863.544 332.768 863.544 332.452 863.491 332.084C863.702 332.084 865.07 333.61 866.122 333.505C877.963 332.926 886.488 334.715 890.698 338.714C892.75 340.661 893.803 343.082 893.803 345.924C893.803 347.66 893.329 350.976 890.33 353.87C887.014 357.08 881.541 358.606 874.648 358.343C874.121 358.343 873.595 358.501 873.174 358.869C872.806 359.238 872.543 359.764 872.543 360.29L872.28 369.973C868.701 384.024 865.912 398.232 863.965 412.599C862.334 424.65 859.965 438.806 866.649 449.804C879.91 471.748 915.747 466.381 936.007 459.54C962.53 450.488 964.003 420.545 954.794 398.022Z" fill="#000200"/>
<path d="M841.599 480.327C840.494 480.327 839.441 480.275 838.441 480.169C823.917 478.643 812.919 466.961 808.867 456.751C808.446 455.752 808.972 454.541 809.972 454.173C810.972 453.752 812.182 454.278 812.55 455.278C816.181 464.382 825.97 474.854 838.81 476.222C847.335 477.117 860.281 474.17 873.121 454.91C873.752 453.962 874.963 453.752 875.91 454.331C876.805 454.962 877.068 456.173 876.489 457.12C864.017 475.854 851.071 480.327 841.599 480.327Z" fill="#000200"/>
<path d="M784.398 676.196C783.662 676.196 782.978 675.775 782.609 675.091C777.084 664.25 715.829 510.43 713.251 504.01C712.83 502.957 713.356 501.8 714.356 501.431C715.408 501.01 716.566 501.536 716.934 502.536C717.566 504.115 780.662 662.619 786.135 673.302C786.661 674.302 786.24 675.512 785.24 675.986C784.977 676.143 784.662 676.196 784.398 676.196Z" fill="#000200"/>
<path d="M820.657 602.153C807.659 588.576 794.608 574.946 781.61 561.369C779.821 559.527 776.979 562.316 778.768 564.211L817.816 604.994C819.605 606.889 822.446 604.047 820.657 602.153Z" fill="#000200"/>
<path d="M805.657 445.754C762.032 435.334 692.252 429.914 658.678 427.283C648.89 426.493 641.786 425.967 639.365 425.599C638.839 425.494 638.313 425.652 637.892 425.967C638.681 427.23 639.47 428.493 640.26 429.756C643.47 430.125 649.679 430.598 658.362 431.282C691.779 433.861 761.401 439.281 804.71 449.648C804.868 449.701 805.026 449.701 805.184 449.701C806.079 449.701 806.921 449.069 807.131 448.175C807.394 447.07 806.71 446.017 805.657 445.754Z" fill="#000200"/>
<path d="M555.378 514.006C549.799 514.006 546.116 510.533 544.695 508.113C544.169 507.271 544.379 506.166 545.168 505.534C545.116 505.534 548.273 501.377 554.693 472.17C559.219 451.647 553.904 439.228 550.747 431.808C548.905 427.44 547.537 424.335 549.168 421.704C552.641 416.178 561.271 419.862 564.639 421.598C574.796 413.179 587.215 418.178 591.372 420.283C599.898 411.758 608.686 408.179 617.579 409.653C630.42 411.758 642.997 425.019 652.995 446.858C653.469 447.858 652.995 449.068 651.996 449.489C650.996 449.963 649.785 449.489 649.364 448.489C639.892 427.861 628.367 415.494 616.895 413.547C609.054 412.231 601.108 415.81 593.214 424.124C592.583 424.809 591.53 424.966 590.688 424.44C590.109 424.072 577.322 416.336 567.271 424.598C583.795 472.223 562.429 511.428 562.219 511.849C562.008 512.27 561.64 512.586 561.219 512.744C559.114 513.638 557.167 514.006 555.378 514.006ZM548.905 507.06C550.273 508.639 553.536 511.27 559.114 509.323C561.745 504.166 578.48 468.276 563.376 425.44C560.219 423.756 554.167 421.441 552.641 423.861C552.115 424.703 553.273 427.387 554.483 430.281C557.851 438.122 563.429 451.278 558.64 473.065C554.851 490.378 551.325 502.587 548.905 507.06Z" fill="#000200"/>
<path d="M697.62 524.74C687.937 524.74 674.781 524.688 656.941 524.477C604.317 523.846 560.429 513.005 560.008 512.9C558.955 512.637 558.271 511.532 558.534 510.479C558.797 509.427 559.902 508.743 560.955 509.006C561.376 509.111 604.791 519.794 656.941 520.425C709.197 521.057 721.88 520.425 721.985 520.425C723.09 520.32 724.037 521.215 724.09 522.32C724.142 523.425 723.3 524.372 722.195 524.425C721.932 524.477 716.407 524.74 697.62 524.74Z" fill="#000200"/>
<path d="M550.956 424.808C550.746 424.808 550.535 424.756 550.325 424.703C488.597 404.864 450.444 387.603 443.392 384.393C421.922 374.447 395.82 375.973 365.824 388.866C362.72 390.234 360.93 391.866 361.193 393.129C361.562 394.971 365.772 397.602 372.666 397.602C379.191 397.602 386.821 396.707 392.084 395.97C397.978 395.128 403.872 397.286 407.871 401.654C416.501 411.074 424.079 417.967 429.237 421.125C430.184 421.704 430.499 422.914 429.921 423.861C429.342 424.808 428.131 425.124 427.184 424.545C420.133 420.283 411.186 411.231 404.924 404.39C401.819 400.97 397.241 399.338 392.663 399.97C387.242 400.707 379.401 401.654 372.666 401.654C364.667 401.654 358.194 398.444 357.247 393.971C356.826 392.024 357.194 388.235 364.193 385.235C395.294 371.816 422.501 370.342 445.024 380.762C452.023 384.025 489.965 401.128 551.483 420.914C552.535 421.23 553.114 422.388 552.798 423.44C552.588 424.23 551.798 424.808 550.956 424.808Z" fill="#000200"/>
<path d="M546.483 509.112C546.272 509.112 546.062 509.059 545.851 509.007C527.696 502.955 507.751 494.903 488.544 487.115C456.022 473.959 425.289 461.54 402.45 457.961C401.345 457.803 400.609 456.751 400.766 455.698C400.924 454.646 401.977 453.856 403.029 454.014C426.289 457.645 457.232 470.117 490.017 483.379C509.225 491.167 529.064 499.166 547.114 505.165C548.167 505.533 548.746 506.638 548.377 507.691C548.114 508.586 547.325 509.112 546.483 509.112Z" fill="#000200"/>
<path d="M224.528 387.072C223.686 387.072 222.897 386.546 222.634 385.651C222.318 384.599 222.897 383.493 223.949 383.125C242.999 377.284 259.471 358.602 265.68 350.814C267.838 348.077 271.574 347.235 274.679 348.656C300.623 360.707 312.2 362.181 313.621 360.181C314.2 359.392 314.358 358.55 314.147 357.497C312.989 351.603 301.412 341.605 279.678 327.922C256.629 313.345 235.579 321.555 173.062 345.815L170.167 346.972C169.115 347.393 167.957 346.867 167.589 345.815C167.168 344.762 167.694 343.604 168.746 343.236L171.641 342.078C235.527 317.24 257.05 308.925 281.836 324.554C305.517 339.5 316.673 349.446 318.094 356.813C318.515 358.971 318.094 360.918 316.884 362.602C313.252 367.601 298.465 364.18 272.995 352.34C271.521 351.656 269.838 352.077 268.785 353.34C262.365 361.391 245.209 380.757 225.107 386.967C224.896 387.072 224.686 387.072 224.528 387.072Z" fill="#000200"/>
<path d="M179.903 447.694C179.167 447.694 178.43 447.273 178.062 446.537C177.588 445.537 178.009 444.326 179.009 443.853C235.422 417.488 246.052 419.33 265.365 422.698L267.523 423.066C268.628 423.277 269.365 424.276 269.154 425.382C268.944 426.487 267.944 427.223 266.839 427.013L264.628 426.645C246.105 423.435 235.896 421.698 180.64 447.484C180.482 447.642 180.167 447.694 179.903 447.694Z" fill="#000200"/>
<path d="M220.634 556.157C212.793 556.157 206.479 549.684 206.479 541.738C206.479 533.897 212.846 527.582 220.634 527.582C228.475 527.582 234.79 533.95 234.79 541.738C234.79 551.158 229.896 556.157 220.634 556.157ZM220.634 531.529C215.004 531.529 210.478 536.107 210.478 541.685C210.478 547.316 215.162 552.105 220.634 552.105C227.686 552.105 230.791 548.895 230.791 541.685C230.791 536.107 226.213 531.529 220.634 531.529Z" fill="#000200"/>
<path d="M167.643 580.415C166.643 580.415 165.801 579.679 165.643 578.626L120.965 206.047C120.912 205.468 121.07 204.889 121.491 204.416C121.912 203.995 122.491 203.731 123.07 203.784L523.277 226.307C524.329 226.36 525.171 227.254 525.171 228.36L522.435 412.544C522.435 413.649 521.54 414.491 520.435 414.491C520.435 414.491 520.435 414.491 520.383 414.491C519.277 414.491 518.383 413.544 518.435 412.439L521.172 230.201L125.227 207.941L169.432 576.311L517.225 563.628L518.541 497.585C518.541 496.48 519.488 495.69 520.593 495.638C521.698 495.638 522.593 496.585 522.54 497.69L521.225 565.628C521.225 566.681 520.33 567.575 519.277 567.575L167.748 580.363C167.695 580.415 167.695 580.415 167.643 580.415Z" fill="#000200"/>
<path d="M187.324 518.847C186.324 518.847 185.429 518.058 185.324 517.058L155.855 234.361C155.802 233.782 156.013 233.203 156.381 232.782C156.802 232.361 157.328 232.15 157.907 232.15L493.86 246.675C494.912 246.727 495.754 247.622 495.754 248.674V402.916C495.754 404.021 494.86 404.916 493.755 404.916C492.65 404.916 491.755 404.021 491.755 402.916V250.569L160.065 236.255L189.113 514.795L491.755 508.954V490.009C491.755 488.904 492.65 488.009 493.755 488.009C494.86 488.009 495.754 488.904 495.754 490.009V510.901C495.754 512.006 494.86 512.901 493.807 512.901L187.324 518.847Z" fill="#000200"/>
<path d="M316.411 570.996C314.306 571.049 314.253 571.102 296.203 643.302C297.571 643.302 298.992 643.249 300.36 643.144C307.044 616.516 316.937 577.364 318.2 574.049C318.411 573.733 318.516 573.364 318.463 572.943C318.463 571.838 317.463 570.944 316.411 570.996Z" fill="#000200"/>
<path d="M369.458 569.154C368.353 568.838 367.3 569.522 366.984 570.574L349.303 637.46C350.724 637.249 352.144 637.144 353.565 636.986L370.879 571.574C371.194 570.522 370.563 569.417 369.458 569.154Z" fill="#000200"/>
<path d="M281.206 661.721L254.105 662.51V650.617L421.924 629.515V651.512C423.239 651.249 424.607 650.986 425.923 650.67V627.252C425.923 626.673 425.66 626.147 425.239 625.726C424.818 625.305 424.239 625.147 423.66 625.252L251.842 646.828C250.842 646.933 250.105 647.828 250.105 648.828V664.51C250.105 665.036 250.316 665.562 250.737 665.931C251.105 666.299 251.632 666.51 252.158 666.51H252.21L280.68 665.72C280.68 665.51 280.628 665.247 280.628 664.984V664.51C280.628 663.457 280.838 662.51 281.206 661.721Z" fill="#000200"/>
<path d="M305.834 613.357L364.668 587.255L368.983 571.1L316.517 572.994L305.834 613.357Z" fill="#000200"/>
<path d="M280.941 683.408C280.415 683.408 279.941 683.198 279.573 682.829C279.205 682.461 278.941 681.935 278.941 681.408V655.622C278.941 654.57 279.783 653.675 280.889 653.623L539.379 643.887C540.378 643.835 541.326 644.624 541.431 645.676L543.904 671.041C543.957 671.568 543.799 672.146 543.431 672.567C543.062 672.988 542.536 673.252 542.01 673.252L280.994 683.355C280.994 683.408 280.941 683.408 280.941 683.408ZM282.941 657.57V679.303L539.747 669.357L537.642 647.992L282.941 657.57Z" fill="#000200"/>
<path d="M331.145 645.674H311.569C310.464 645.674 309.569 646.568 309.569 647.674V654.462C309.569 655.567 309.99 655.988 311.095 655.988L330.461 654.778C331.566 654.778 333.145 655.567 333.145 654.462V647.674C333.145 646.568 332.25 645.674 331.145 645.674Z" fill="#000200"/>
<path d="M412.765 642.937C412.344 642.568 411.818 642.358 411.239 642.41L364.982 645.726C363.93 645.778 363.141 646.673 363.141 647.725V651.146C363.141 652.251 364.035 653.146 365.14 653.146L411.397 651.935C412.502 651.935 413.397 652.251 413.397 651.093V644.41C413.449 643.831 413.186 643.305 412.765 642.937Z" fill="#000200"/>
<path d="M475.967 642.464C475.546 642.095 475.072 641.832 474.493 641.937L448.339 643.358C447.286 643.411 446.444 644.306 446.444 645.358V648.779C446.444 649.305 446.655 649.831 447.023 650.199C447.392 650.568 447.918 650.778 448.444 650.778L474.019 649.147C475.125 649.147 476.545 649.673 476.545 648.621V643.99C476.598 643.411 476.388 642.885 475.967 642.464Z" fill="#000200"/>
<path d="M511.593 639.622C511.172 639.254 510.698 638.99 510.119 639.096L483.965 640.516C482.912 640.569 482.07 641.464 482.07 642.516V645.937C482.07 646.463 482.281 646.989 482.649 647.358C483.018 647.726 483.544 647.936 484.07 647.936L510.224 647.726C511.329 647.726 512.224 646.831 512.224 645.726V641.095C512.224 640.516 512.014 639.99 511.593 639.622Z" fill="#000200"/>
<path d="M959.898 716.764H653.519C652.993 716.764 652.414 716.553 652.046 716.132C651.678 715.711 651.467 715.185 651.52 714.659L662.887 522.633C662.939 521.528 663.939 520.633 664.992 520.738C666.097 520.791 666.939 521.738 666.886 522.843L655.677 712.764H958.056L990.472 181.576L686.62 189.417L672.359 430.33C672.306 431.435 671.359 432.277 670.254 432.225C669.149 432.172 668.307 431.225 668.359 430.12L682.726 187.364C682.778 186.312 683.62 185.522 684.673 185.47L992.577 177.523C993.156 177.523 993.682 177.734 994.051 178.155C994.419 178.576 994.629 179.102 994.629 179.681L961.95 714.974C961.845 715.974 961.003 716.764 959.898 716.764Z" fill="#000200"/>
<path d="M880.961 206.416C876.383 206.416 872.699 202.68 872.699 198.049C872.699 193.523 876.383 189.787 880.961 189.787C885.487 189.787 889.223 193.471 889.223 198.049C889.223 203.417 886.276 206.416 880.961 206.416ZM880.961 193.787C878.646 193.787 876.699 195.681 876.699 198.049C876.699 200.417 878.646 202.417 880.961 202.417C884.013 202.417 885.224 201.207 885.224 198.049C885.224 195.681 883.329 193.787 880.961 193.787Z" fill="#000200"/>
<path d="M678.567 677.823C678.041 677.823 677.515 677.613 677.094 677.192C676.725 676.771 676.515 676.245 676.568 675.718L683.619 522.582C683.672 521.477 684.619 520.53 685.724 520.688C686.829 520.74 687.671 521.687 687.619 522.793L680.672 673.824L936.794 672.929L957.897 219.467L701.775 215.993L691.829 431.858C691.776 432.963 690.934 433.91 689.724 433.752C688.619 433.7 687.777 432.753 687.829 431.647L697.828 213.836C697.88 212.783 698.775 211.941 699.827 211.941C699.827 211.941 699.827 211.941 699.88 211.941L960.054 215.467C960.58 215.467 961.107 215.678 961.475 216.099C961.843 216.52 962.054 217.046 962.001 217.572L940.741 674.982C940.688 676.034 939.794 676.876 938.741 676.876L678.567 677.823Z" fill="#000200"/>
<path d="M858.122 200.103H799.657C798.552 200.103 797.657 199.208 797.657 198.103C797.657 196.998 798.552 196.104 799.657 196.104H858.122C859.228 196.104 860.122 196.998 860.122 198.103C860.122 199.208 859.28 200.103 858.122 200.103Z" fill="#000200"/>
<path d="M992.631 179.525L1005 198.102L972.265 714.766H959.898L992.631 179.525Z" fill="#000200"/>
<path d="M972.264 716.765H959.897C959.371 716.765 958.792 716.555 958.424 716.134C958.056 715.713 957.845 715.187 957.898 714.66L990.577 179.367C990.63 178.525 991.209 177.788 992.051 177.578C992.893 177.367 993.787 177.683 994.261 178.42L1006.63 196.996C1006.89 197.364 1007 197.785 1006.94 198.259L974.211 714.923C974.211 715.976 973.317 716.765 972.264 716.765ZM962.055 712.766H970.422L1003 198.627L994.314 185.577L962.055 712.766Z" fill="#000200"/>
<path d="M722.142 661.932H694.462C693.357 661.932 692.462 661.037 692.462 659.932V634.252C692.462 633.147 693.357 632.252 694.462 632.252C695.567 632.252 696.461 633.147 696.461 634.252V657.933H722.142C723.247 657.933 724.142 658.827 724.142 659.932C724.142 661.037 723.247 661.932 722.142 661.932Z" fill="#000200"/>
<path d="M923.64 661.932H895.854C894.749 661.932 893.854 661.037 893.854 659.932C893.854 658.827 894.749 657.933 895.854 657.933H921.64V634.252C921.64 633.147 922.535 632.252 923.64 632.252C924.745 632.252 925.639 633.147 925.639 634.252V659.932C925.639 661.037 924.745 661.932 923.64 661.932Z" fill="#000200"/>
<path d="M944.427 266.88C943.269 266.88 942.427 265.933 942.427 264.828L942.795 236.148H916.536C915.431 236.148 914.536 235.253 914.536 234.148C914.536 233.043 915.431 232.148 916.536 232.148H944.848C945.374 232.148 945.9 232.359 946.269 232.727C946.637 233.096 946.847 233.622 946.847 234.148L946.426 264.881C946.426 265.986 945.532 266.88 944.427 266.88Z" fill="#000200"/>
<path d="M715.091 255.831C713.985 255.831 713.091 254.936 713.091 253.831V228.361C713.091 227.256 713.985 226.361 715.091 226.361H743.087C744.192 226.361 745.086 227.256 745.086 228.361C745.086 229.466 744.192 230.361 743.087 230.361H717.09V253.831C717.143 254.936 716.248 255.831 715.091 255.831Z" fill="#000200"/>
<path d="M810.971 686.242H775.028C772.186 686.242 769.818 688.558 769.818 691.452C769.818 694.188 771.976 696.451 774.712 696.662L810.602 698.925C810.707 698.925 810.813 698.925 810.918 698.925C812.233 698.925 813.496 698.398 814.496 697.504C815.549 696.504 816.128 695.136 816.128 693.715V691.452C816.128 688.558 813.812 686.242 810.971 686.242Z" fill="#000200"/>
</svg>
