<svg width="1128" height="856" viewBox="0 0 1128 856" fill="none" xmlns="http://www.w3.org/2000/svg">
<path d="M727.645 707.296C726.568 707.296 725.644 706.424 725.593 705.296L718.156 444.512C718.105 443.384 719.028 442.461 720.157 442.41C721.234 442.41 722.208 443.282 722.259 444.41L729.696 705.193C729.748 706.321 728.824 707.244 727.696 707.296C727.645 707.296 727.645 707.296 727.645 707.296Z" fill="#000200"/>
<path d="M399.295 717.09C398.166 717.09 397.243 716.167 397.243 715.039V675.711C397.243 674.583 398.166 673.66 399.295 673.66C400.423 673.66 401.346 674.583 401.346 675.711V715.039C401.346 716.218 400.423 717.09 399.295 717.09Z" fill="#000200"/>
<path d="M523.721 565.778C523.67 565.778 523.619 565.778 523.568 565.778L465.663 560.958C465.098 560.907 464.586 560.65 464.278 560.24C463.919 559.83 463.765 559.266 463.816 558.702L467.458 525.732C467.56 524.707 468.432 523.938 469.458 523.938H523.721C524.85 523.938 525.773 524.86 525.773 525.988V563.778C525.773 564.342 525.517 564.906 525.106 565.265C524.696 565.573 524.183 565.778 523.721 565.778ZM468.022 557.061L521.67 561.522V527.988H471.253L468.022 557.061Z" fill="#000200"/>
<path d="M669.535 511.068C649.071 511.068 638.66 496.557 637.685 483.021C636.711 469.741 644.301 454.256 663.227 451.589C676.459 449.692 687.999 454.205 694.872 463.844C701.54 473.176 702.617 485.995 697.59 495.84C692.615 505.582 682.717 511.017 669.792 511.119C669.741 511.068 669.638 511.068 669.535 511.068ZM663.791 455.64C647.43 457.948 640.916 471.279 641.737 482.765C642.609 494.865 651.584 507.017 669.535 507.017C669.638 507.017 669.741 507.017 669.843 507.017C681.178 506.915 689.794 502.3 694.051 493.994C698.411 485.533 697.436 474.355 691.641 466.254C688.102 461.28 679.793 453.384 663.791 455.64Z" fill="#000200"/>
<path d="M390.781 505.523C389.344 495.268 384.575 480.655 390.37 469.169C398.628 452.864 412.681 434.867 417.964 441.122C426.631 451.326 450.532 599.766 446.121 641.863C441.71 683.959 400.833 705.29 400.833 705.29L399.346 675.755C399.346 675.755 419.194 657.194 420.272 621.045C421.349 584.897 399.141 483.167 399.141 483.167L390.781 505.523Z" fill="#000200"/>
<path d="M743.389 638.631C740.363 653.091 733.952 664.884 726.669 674.267C726.412 670.217 726.156 666.115 725.899 662.064C724.515 641.093 718.309 453.171 720.873 446.915C717.026 427.277 730.208 450.402 736.875 465.323C742.517 477.936 749.287 494.344 748.312 510.496C749.39 560.284 748.312 615.148 743.389 638.631Z" fill="#000200"/>
<path d="M363.956 574.589C362.828 574.589 361.904 573.666 361.904 572.538L361.802 417.534C361.802 405.792 370.982 396.358 382.676 396.05C432.888 394.768 433.093 395.025 433.965 396.101C434.375 396.614 434.529 397.281 434.375 397.896C434.119 398.973 432.99 399.691 431.913 399.383C431.862 399.383 431.811 399.332 431.759 399.332C430.375 399.229 422.579 399.075 382.779 400.152C373.29 400.408 365.854 408.048 365.854 417.534L365.956 572.538C366.007 573.666 365.084 574.589 363.956 574.589Z" fill="#000200"/>
<path d="M734.467 489.423C733.338 489.423 732.415 488.501 732.415 487.372V413.742C732.415 404.154 724.619 396.36 715.028 396.36C713.9 396.36 712.977 395.437 712.977 394.309C712.977 393.181 713.9 392.258 715.028 392.258C726.876 392.258 736.467 401.897 736.467 413.691V487.321C736.467 488.501 735.595 489.423 734.467 489.423Z" fill="#000200"/>
<path d="M372.881 717.083C371.752 717.083 370.829 716.16 370.829 715.032V698.983C370.829 697.855 371.752 696.932 372.881 696.932C374.009 696.932 374.932 697.855 374.932 698.983V715.032C374.932 716.211 374.009 717.083 372.881 717.083Z" fill="#000200"/>
<path d="M682.921 394.365C680.972 363.549 656.456 367.395 656.456 367.395C649.635 348.987 631.991 346.68 631.991 346.68C630.504 324.17 619.272 300.891 570.445 303.404C521.618 305.916 500.436 326.785 502.129 359.345C481.767 359.601 474.484 371.907 474.587 380.008C470.637 370.984 469.56 360.216 469.458 347.808C468.842 292.79 495.41 274.741 596.295 273.767C680.408 272.947 688.665 290.995 691.076 332.323C692.666 360.626 692.871 380.88 682.921 394.365Z" fill="#000200"/>
<path d="M601.064 418.103C486.639 418.103 467.918 397.388 467.405 347.857C467.149 324.065 471.919 308.427 482.946 297.197C500.076 279.713 532.901 272.329 596.242 271.765V273.816V271.765C680.664 270.996 690.562 289.557 693.076 332.218C694.819 362.47 695.024 384.98 681.689 399.132C669.124 412.412 645.018 418.103 601.064 418.103ZM596.294 275.816C534.132 276.38 502.179 283.404 485.869 300.017C475.663 310.426 471.201 325.142 471.457 347.806C471.97 392.825 484.895 414.001 601.064 414.001C643.787 414.001 667.021 408.72 678.715 396.311C690.973 383.339 690.716 361.65 689.024 332.423C686.818 294.685 681.638 275.047 596.294 275.816Z" fill="#000200"/>
<path d="M523.669 386.774C523.413 386.774 523.105 386.723 522.848 386.621C521.823 386.159 521.361 384.98 521.823 383.954C529.054 367.393 547.159 326.732 547.159 326.732C547.621 325.706 548.801 325.245 549.775 325.655C550.339 325.86 605.372 348.216 631.632 344.165C632.76 344.011 633.786 344.78 633.94 345.857C634.094 346.985 633.376 348.011 632.247 348.165C607.372 352.01 560.135 334.115 550.083 330.167C546.493 338.217 531.875 371.084 525.515 385.595C525.208 386.313 524.49 386.774 523.669 386.774Z" fill="#000200"/>
<path d="M500.384 402.617C499.409 402.617 498.538 401.899 498.384 400.925C497.717 396.669 498.691 392.824 501.205 389.799C505.205 385.081 512.796 382.723 523.669 382.723C524.797 382.723 525.721 383.646 525.721 384.774C525.721 385.902 524.797 386.825 523.669 386.825C514.129 386.825 507.462 388.773 504.282 392.465C502.487 394.567 501.871 397.182 502.384 400.31C502.538 401.438 501.82 402.463 500.692 402.669C500.589 402.617 500.487 402.617 500.384 402.617Z" fill="#000200"/>
<path d="M588.086 408.771C586.958 408.771 586.035 407.848 586.035 406.72C586.035 405.592 586.958 404.669 588.086 404.669C591.882 404.669 595.01 403.644 596.498 401.951C597.318 400.977 597.575 399.798 597.37 398.362C596.805 395.132 589.676 393.337 586.291 392.978C585.265 392.876 584.496 392.004 584.496 390.979V372.315C584.496 371.187 585.419 370.264 586.548 370.264C587.676 370.264 588.599 371.187 588.599 372.315V389.184C592.395 389.851 600.498 391.953 601.421 397.696C601.883 400.311 601.267 402.721 599.678 404.567C597.318 407.284 593.215 408.771 588.086 408.771Z" fill="#000200"/>
<path d="M559.572 362.009C556.238 362.368 553.007 362.932 549.776 363.906C547.262 364.675 548.955 368.367 551.468 367.598C554.289 366.726 557.264 366.316 560.238 366.008C562.854 365.701 562.187 361.701 559.572 362.009Z" fill="#000200"/>
<path d="M618.451 363.549C616.348 362.165 614.04 361.191 612.04 359.652C609.989 358.063 607.117 360.986 609.219 362.575C611.476 364.318 614.092 365.498 616.451 367.087C618.656 368.523 620.605 364.934 618.451 363.549Z" fill="#000200"/>
<path d="M634.761 415.54C633.633 415.54 632.71 414.617 632.71 413.54C632.556 394.363 632.043 378.058 629.94 346.831C627.94 317.041 608.501 303.504 570.548 305.453C544.288 306.786 525.516 313.503 514.746 325.45C507.001 334.064 503.411 345.396 504.129 359.24C504.18 360.368 503.308 361.342 502.18 361.393C500.949 361.393 500.077 360.573 500.026 359.445C499.256 344.524 503.154 332.167 511.668 322.732C523.208 309.965 542.903 302.786 570.291 301.402C610.399 299.351 631.838 314.528 633.941 346.575C636.043 377.801 636.556 394.773 636.71 413.54C636.813 414.617 635.941 415.54 634.761 415.54C634.761 415.54 634.812 415.54 634.761 415.54Z" fill="#000200"/>
<path d="M405.756 469.789C405.449 469.789 405.141 469.738 404.885 469.584C403.859 469.123 403.448 467.892 403.91 466.867L405.192 464.2C413.039 447.997 436.889 398.774 435.401 353.549C433.965 310.889 434.375 281.56 451.66 263.408C470.226 243.924 506.436 236.899 595.217 235.515C669.021 234.13 710.975 239.36 716.002 363.497C716.309 371.444 716.566 378.828 716.771 385.699C717.592 412.002 718.156 431.025 722.823 446.305C723.131 447.382 722.567 448.51 721.489 448.869C720.412 449.177 719.284 448.613 718.925 447.536C714.104 431.743 713.54 412.515 712.719 385.852C712.514 378.982 712.258 371.598 711.95 363.65C706.821 237.412 662.456 238.284 595.319 239.565C507.821 240.899 472.329 247.616 454.635 266.177C438.427 283.149 438.12 311.76 439.504 353.395C441.043 399.594 416.835 449.536 408.885 465.944L407.603 468.61C407.244 469.379 406.526 469.789 405.756 469.789Z" fill="#000200"/>
<path d="M474.586 380.057L472.534 380.006C472.483 375.083 474.637 369.956 478.586 365.905C482.33 362.06 489.459 357.445 502.128 357.291C503.153 357.291 504.179 358.163 504.179 359.291C504.179 360.419 503.307 361.342 502.179 361.342C490.895 361.496 484.741 365.444 481.51 368.725C478.381 371.904 476.586 376.109 476.637 379.954L474.586 380.057Z" fill="#000200"/>
<path d="M681.022 397.491C681.022 397.645 681.022 397.748 681.073 397.901C682.304 396.722 683.638 395.594 685.022 394.569C685.022 394.466 685.022 394.363 685.022 394.261C684.356 383.391 680.868 375.392 674.713 370.469C668.405 365.393 661.122 365.086 657.891 365.239C650.351 347.242 633.067 344.73 632.349 344.627C631.221 344.473 630.195 345.242 630.041 346.37C629.887 347.498 630.657 348.524 631.785 348.678C632.452 348.78 648.3 351.139 654.66 368.111C655.019 369.034 655.891 369.547 656.865 369.393C656.968 369.393 665.43 368.162 672.2 373.648C677.38 377.853 680.355 384.826 680.971 394.517C680.971 395.492 681.022 396.466 681.022 397.491Z" fill="#000200"/>
<path d="M555.929 403.028C553.108 403.028 550.185 402.361 547.518 401.028C540.44 397.49 536.337 390.312 536.337 381.288C536.337 380.16 537.26 379.237 538.388 379.237C539.517 379.237 540.44 380.16 540.44 381.288C540.491 388.722 543.722 394.568 549.364 397.388C554.185 399.798 559.827 399.388 563.776 396.465C568.29 393.081 569.982 386.928 568.597 379.134C568.392 378.006 569.162 376.98 570.239 376.775C571.367 376.57 572.393 377.339 572.598 378.416C574.855 391.081 569.572 397.183 566.187 399.695C563.263 401.9 559.622 403.028 555.929 403.028Z" fill="#000200"/>
<path d="M613.68 400.723C611.167 400.723 608.654 400.158 606.346 398.928C599.729 395.595 595.985 388.211 595.985 378.777C595.985 377.649 596.909 376.726 598.037 376.726C599.165 376.726 600.088 377.649 600.088 378.777C600.088 386.622 603.063 392.672 608.243 395.287C612.295 397.338 617.065 396.979 620.706 394.364C625.169 391.134 627.066 385.032 625.887 377.649C625.733 376.521 626.451 375.495 627.579 375.29C628.708 375.136 629.733 375.854 629.938 376.982C631.375 385.904 628.913 393.442 623.117 397.646C620.245 399.697 617.014 400.723 613.68 400.723Z" fill="#000200"/>
<path d="M571.06 388.825C570.342 388.825 569.624 388.466 569.265 387.748C568.701 386.774 569.111 385.544 570.085 384.98C570.701 384.621 585.472 376.724 598.858 383.082C599.884 383.544 600.294 384.774 599.833 385.8C599.371 386.825 598.14 387.236 597.114 386.774C585.575 381.288 572.188 388.466 572.034 388.569C571.727 388.723 571.368 388.825 571.06 388.825Z" fill="#000200"/>
<path d="M605.577 379.547L605.167 383.598C604.603 388.828 612.706 389.648 613.27 384.469L613.681 380.419C614.194 375.189 606.09 374.317 605.577 379.547Z" fill="#000200"/>
<path d="M550.647 380.826L550.237 384.877C549.673 390.107 557.777 390.927 558.341 385.749L558.751 381.698C559.315 376.468 551.212 375.596 550.647 380.826Z" fill="#000200"/>
<path d="M332.055 596.228C329.285 596.228 326.362 595.92 323.233 595.203C303.436 590.844 296.768 557.516 289.023 518.957C286.869 508.138 284.613 496.96 281.997 486.09C281.535 484.295 281.125 482.603 280.715 480.809C275.945 461.119 271.226 442.455 265.174 430.867C248.249 398.205 218.245 376.67 206.91 374.311C205.218 373.952 204.448 374.157 204.295 374.26C204.038 374.875 203.166 378.618 214.655 390.411C219.886 395.744 221.117 403.64 217.886 410.511C215.322 415.997 214.347 421.022 215.014 425.534C215.168 426.663 214.398 427.688 213.321 427.842C212.193 427.996 211.167 427.227 211.013 426.15C210.244 420.817 211.321 414.972 214.245 408.768C216.758 403.435 215.783 397.333 211.783 393.231C202.346 383.54 198.704 376.772 200.653 372.516C201.063 371.645 202.192 370.106 205.064 370.004C205.115 370.004 205.218 370.004 205.269 370.004C216.963 370.004 250.711 394.052 268.816 428.97C275.073 440.968 279.894 459.889 284.715 479.834C285.125 481.578 285.536 483.321 285.997 485.064C288.613 496.037 290.87 507.266 293.075 518.137C300.204 553.773 306.923 587.409 324.156 591.203C356.827 598.433 369.649 561.002 384.42 517.726C390.267 500.703 396.268 483.065 403.961 466.811C404.423 465.785 405.654 465.375 406.68 465.836C407.705 466.298 408.116 467.528 407.654 468.554C400.063 484.552 394.063 502.088 388.318 519.008C374.727 558.644 361.905 596.228 332.055 596.228Z" fill="#000200"/>
<path d="M185.318 421.278C185.062 421.278 184.805 421.227 184.549 421.124C173.111 416.305 141.517 405.28 132.593 411.844C130.901 413.125 130.183 415.074 130.439 417.843C130.542 418.971 129.721 419.945 128.593 420.048C127.464 420.15 126.49 419.33 126.387 418.202C125.874 412.92 128.131 409.998 130.183 408.562C138.081 402.768 156.853 407.178 170.598 411.639C166.187 409.639 161.52 407.998 157.314 406.511C148.595 403.486 142.235 401.281 140.902 397.179C140.543 396.102 140.389 394.359 141.825 392.257C150.237 379.899 199.781 398.871 214.758 405.024C215.783 405.434 216.296 406.614 215.886 407.69C215.476 408.716 214.245 409.229 213.219 408.818C177.42 394.205 149.416 388.36 145.21 394.615C144.646 395.436 144.749 395.795 144.8 395.948C145.518 398.102 152.493 400.563 158.648 402.717C168.239 406.05 180.24 410.254 186.908 417.945C187.523 418.663 187.575 419.689 187.01 420.458C186.6 420.971 185.985 421.278 185.318 421.278Z" fill="#000200"/>
<path d="M175.47 427.638C172.29 426.818 168.443 425.587 164.34 424.357C148.492 419.434 130.541 413.845 124.848 420.408C122.284 423.331 122.54 427.895 125.617 434.355C125.617 434.406 125.669 434.406 125.669 434.458C126.848 434.406 128.028 434.458 129.156 434.56C129.515 433.996 129.567 433.227 129.259 432.612C127.002 427.946 126.541 424.613 127.874 423.075C131.823 418.511 150.595 424.408 163.058 428.253C167.213 429.535 171.11 430.766 174.393 431.638C175.47 431.894 176.598 431.279 176.855 430.202C177.214 429.023 176.598 427.895 175.47 427.638Z" fill="#000200"/>
<path d="M319.027 717.082C312.052 717.082 304.718 716.364 296.973 714.826C220.451 699.495 206.757 593.356 200.192 542.389C199.576 537.569 199.012 533.313 198.499 529.775C197.525 523.315 196.396 517.162 195.217 511.573C194.96 510.137 194.652 508.753 194.293 507.368C188.754 482.961 181.523 466.707 174.393 462.657C166.29 458.042 156.083 455.376 147.057 453.017C134.44 449.735 124.49 447.12 122.438 440.301C121.823 438.25 121.207 435.276 123.156 433.174C126.849 429.225 136.44 431.174 166.341 437.891C167.418 438.147 168.136 439.224 167.88 440.301C167.623 441.378 166.546 442.095 165.469 441.839C144.749 437.173 128.439 433.481 126.182 435.891C125.823 436.301 125.874 437.429 126.387 439.07C127.772 443.685 137.671 446.3 148.134 449.018C157.366 451.427 167.88 454.145 176.445 459.067C187.575 465.374 194.909 491.422 198.294 506.343C198.653 507.727 199.012 509.265 199.268 510.752C200.499 516.393 201.628 522.597 202.602 529.16C203.115 532.749 203.679 537.005 204.295 541.876C210.757 591.92 224.195 696.111 297.845 710.878C377.907 726.978 415.809 648.271 416.168 647.451C416.63 646.425 417.861 646.015 418.887 646.477C419.912 646.938 420.323 648.169 419.861 649.194C419.451 649.912 387.088 717.082 319.027 717.082Z" fill="#000200"/>
<path d="M196.242 506.753C196.652 508.188 196.909 509.624 197.217 511.06C213.424 514.034 230.247 513.572 246.403 509.316C260.866 505.471 275.688 497.472 284.1 485.576C283.638 483.782 283.228 482.038 282.817 480.295C274.098 495.882 253.326 504.497 235.734 507.471C222.502 509.727 209.167 509.419 196.242 506.753Z" fill="#000200"/>
<path d="M348.21 712.675C347.338 712.675 346.518 712.111 346.261 711.239C342.363 698.523 328.926 685.704 311.282 677.911C289.074 668.066 264.405 667.963 243.684 677.603C242.658 678.064 241.479 677.654 240.966 676.629C240.504 675.603 240.914 674.424 241.94 673.911C263.738 663.759 289.587 663.81 312.924 674.167C331.644 682.474 345.902 696.216 350.159 710.06C350.467 711.137 349.903 712.265 348.826 712.624C348.621 712.624 348.415 712.675 348.21 712.675Z" fill="#000200"/>
<path d="M792.319 570.54C761.443 570.54 746.159 523.265 734.721 487.936L733.952 485.578C728.362 468.144 723.54 453.069 718.411 446.352C717.745 445.481 717.899 444.199 718.771 443.481C719.642 442.815 720.925 442.968 721.643 443.84C727.182 451.121 732.157 466.452 737.85 484.245L738.619 486.603C753.596 532.956 769.598 573.873 800.473 565.207C833.503 555.927 841.248 500.037 848.121 450.711L848.274 449.531C848.582 447.686 848.787 445.942 849.044 444.148C851.865 423.792 854.839 404.512 859.866 391.95C874.534 355.237 906.077 327.908 917.565 327.036C920.489 326.831 921.669 328.215 922.181 329.087C924.592 333.138 921.566 340.316 912.949 350.981C909.462 355.288 909.103 361.39 912.026 366.21C915.668 372.209 917.36 378.003 917.053 383.438C917.001 384.566 916.027 385.438 914.898 385.387C913.77 385.335 912.898 384.361 912.949 383.233C913.155 378.618 911.667 373.594 908.487 368.312C904.692 362.057 905.205 354.058 909.718 348.418C920.181 335.394 918.95 331.702 918.591 331.138C918.489 331.087 917.719 330.933 916.027 331.446C904.948 334.932 877.201 359.288 863.558 393.437C858.686 405.589 855.763 424.612 852.942 444.66C852.685 446.455 852.429 448.198 852.172 450.044L852.018 451.172C844.992 501.729 837.042 559.054 801.448 569.002C798.319 570.13 795.242 570.54 792.319 570.54Z" fill="#000200"/>
<path d="M942.03 376.313C941.466 376.313 940.902 376.057 940.492 375.647C939.876 374.929 939.825 373.903 940.338 373.134C946.236 364.828 957.725 359.495 966.957 355.239C972.906 352.522 979.625 349.394 980.086 347.189C980.138 347.035 980.189 346.676 979.574 345.907C974.752 340.113 947.467 348.676 913.257 366.673C912.283 367.186 911.052 366.827 910.488 365.802C909.975 364.828 910.334 363.597 911.36 363.033C925.669 355.496 973.111 331.755 982.702 343.241C984.292 345.138 984.343 346.881 984.087 348.009C983.164 352.163 977.06 354.983 968.7 358.88C964.648 360.777 960.135 362.828 955.929 365.289C969.162 359.495 987.472 353.239 995.883 358.264C998.037 359.546 1000.6 362.161 1000.6 367.494C1000.6 368.622 999.679 369.545 998.55 369.545C997.422 369.545 996.499 368.622 996.499 367.494C996.499 364.725 995.627 362.828 993.78 361.751C984.292 356.111 953.878 370.16 943.005 376.057C942.697 376.262 942.389 376.313 942.03 376.313Z" fill="#000200"/>
<path d="M953.366 385.591C952.545 385.591 951.776 385.079 951.468 384.258C951.058 383.181 951.622 382.053 952.699 381.643C955.776 380.515 959.521 378.926 963.47 377.285C978.754 370.824 996.089 363.492 1002.4 369.491C1005.22 372.157 1005.42 376.721 1002.96 383.438C1002.55 384.515 1001.42 385.027 1000.35 384.668C999.269 384.309 998.756 383.13 999.115 382.053C1000.91 377.182 1001.06 373.849 999.577 372.414C995.217 368.26 977.061 375.952 965.06 381.028C961.059 382.72 957.264 384.309 954.135 385.489C953.828 385.54 953.571 385.591 953.366 385.591Z" fill="#000200"/>
<path d="M812.065 688.524C754.468 688.524 726.259 648.581 725.951 648.119C725.336 647.196 725.541 645.914 726.464 645.299C727.387 644.684 728.67 644.889 729.285 645.812C729.644 646.324 765.239 696.522 838.427 681.704C915.001 666.219 927.67 555.055 934.44 495.32C934.85 491.731 935.209 488.347 935.619 485.117C935.978 481.938 936.184 478.758 936.389 475.579C936.594 472.503 936.799 469.478 937.107 466.504C937.209 465.068 937.415 463.53 937.671 461.992C939.569 446.866 944.339 420.254 954.801 412.87C962.854 407.179 973.009 403.436 981.984 400.103C992.14 396.36 1001.73 392.822 1002.65 388.105C1002.96 386.413 1002.96 385.285 1002.55 384.926C1000.09 382.721 984.19 388.002 964.033 394.668C962.956 395.027 961.828 394.463 961.469 393.386C961.11 392.309 961.674 391.181 962.751 390.822C991.832 381.234 1001.22 378.311 1005.27 381.9C1007.42 383.798 1007.12 386.823 1006.71 388.925C1005.37 395.898 995.679 399.488 983.421 403.949C974.701 407.179 964.803 410.819 957.161 416.203C950.442 420.921 944.8 437.841 941.723 462.556C941.466 464.043 941.313 465.478 941.21 466.863C940.851 469.837 940.697 472.759 940.492 475.785C940.287 479.015 940.082 482.245 939.671 485.527C939.312 488.757 938.902 492.141 938.492 495.679C931.568 556.44 918.694 669.501 839.248 685.55C829.555 687.703 820.528 688.524 812.065 688.524Z" fill="#000200"/>
<path d="M939.722 462.453C939.466 463.94 939.312 465.376 939.209 466.863C923.361 471.426 906.59 472.605 890.126 469.939C875.355 467.529 859.866 461.017 850.326 449.993C850.634 448.147 850.839 446.404 851.096 444.609C861.302 459.274 882.792 465.837 900.589 467.068C913.873 467.939 927.105 466.299 939.722 462.453Z" fill="#000200"/>
<path d="M788.574 686.625C788.318 686.625 788.113 686.574 787.856 686.523C786.779 686.113 786.266 684.985 786.625 683.908C802.525 640.529 866.379 623.301 900.025 633.3C901.102 633.607 901.717 634.735 901.41 635.812C901.102 636.889 899.973 637.504 898.896 637.196C866.687 627.659 805.602 644.016 790.472 685.343C790.164 686.113 789.395 686.625 788.574 686.625Z" fill="#000200"/>
<path d="M588.961 98.3507C579.626 89.2751 559.367 80.5071 515.823 90.3006C515.156 90.4544 514.592 90.9159 514.387 91.5824C514.13 92.249 514.233 92.9668 514.643 93.4796L523.362 105.427C523.875 106.144 524.747 106.452 525.568 106.196C544.083 100.658 559.88 101.325 570.086 108.042C576.344 112.144 580.139 118.502 581.062 126.449C583.421 146.549 545.16 151.984 544.801 152.035C543.775 152.189 543.006 153.112 543.057 154.138L544.75 188.184C544.801 189.261 545.724 190.133 546.801 190.133H554.238C554.802 190.133 555.315 189.927 555.726 189.517C556.085 189.107 556.341 188.594 556.29 188.03L555.52 163.675C563.214 161.983 593.474 154.035 597.987 130.961C600.449 118.04 597.269 106.452 588.961 98.3507Z" fill="#000200"/>
<path d="M555.674 197.26H545.468C544.493 197.26 543.672 197.926 543.467 198.849L540.595 211.668C540.493 212.232 540.595 212.796 540.903 213.257C541.211 213.719 541.723 214.027 542.288 214.129L555.315 216.129C555.418 216.129 555.52 216.129 555.623 216.129C556.084 216.129 556.597 215.975 556.956 215.616C557.418 215.206 557.674 214.642 557.674 214.078V199.259C557.726 198.183 556.802 197.26 555.674 197.26Z" fill="#000200"/>
<path d="M470.742 174.185C462.433 165.93 454.124 157.675 445.867 149.368C444.02 147.523 441.148 150.394 442.995 152.24C451.303 160.495 459.612 168.75 467.87 177.057C469.716 178.903 472.588 176.031 470.742 174.185Z" fill="#E30613"/>
<path d="M635.994 128.653C631.122 134.293 626.249 139.882 621.377 145.523C619.633 147.522 622.608 150.394 624.3 148.394C629.173 142.754 634.045 137.165 638.917 131.525C640.661 129.576 637.687 126.654 635.994 128.653Z" fill="#1D1D1B"/>
<path d="M680.308 158.753C668.203 164.239 656.151 169.777 644.046 175.263C641.636 176.391 643.739 179.878 646.149 178.801C658.253 173.315 670.306 167.777 682.41 162.291C684.872 161.163 682.769 157.676 680.308 158.753Z" fill="#E30613"/>
<path d="M651.893 469.681C617.786 474.45 620.505 525.366 658.202 525.109C700.977 524.802 694.053 463.733 651.893 469.681Z" fill="#FFDD00"/>
<path d="M450.071 500.088L456.072 517.983L473.254 504.292L450.071 500.088Z" fill="#2D8CFC"/>
<path d="M180.089 309.193L197.783 353.238L226.659 317.141L180.089 309.193Z" fill="#E30613"/>
<path d="M890.026 220.076L850.277 270.069L899.463 314.012L948.187 270.069L890.026 220.076Z" fill="#2D8CFC"/>
<path d="M866.28 257.559H840.892L836.84 287.401L860.689 295.297L866.28 257.559Z" fill="#FFDD00"/>
<path d="M232.095 238.841C230.967 246.737 229.838 254.582 228.71 262.478C228.351 265.042 232.249 266.17 232.659 263.555C233.787 255.659 234.916 247.814 236.044 239.917C236.403 237.354 232.454 236.226 232.095 238.841Z" fill="#FFDD00"/>
<path d="M875.717 197.873C875.307 195.309 871.358 196.386 871.768 198.95C872.332 202.334 872.897 205.718 873.461 209.102C873.871 211.666 877.82 210.589 877.41 208.026C876.846 204.641 876.282 201.257 875.717 197.873Z" fill="#1D1D1B"/>
<path d="M959.933 297.707C953.727 298.271 947.521 298.835 941.366 299.399C938.75 299.655 938.75 303.706 941.366 303.45C947.572 302.886 953.778 302.321 959.933 301.757C962.497 301.552 962.548 297.502 959.933 297.707Z" fill="#1D1D1B"/>
<path d="M205.015 274.223C201.63 271.967 198.245 269.711 194.86 267.506C192.655 266.07 190.603 269.557 192.809 271.044C196.194 273.3 199.579 275.556 202.964 277.761C205.169 279.196 207.221 275.658 205.015 274.223Z" fill="#FFDD00"/>
<path d="M408.838 182.801C352.42 198.081 300.875 227.359 258.819 267.968C256.921 269.814 259.793 272.686 261.691 270.84C303.286 230.743 354.164 201.875 409.915 186.749C412.428 186.031 411.351 182.134 408.838 182.801Z" fill="#2D8CFC"/>
<path d="M812.888 201.565C791.142 183.157 765.908 170.287 738.161 163.622C735.596 163.006 734.519 166.954 737.083 167.57C764.113 174.082 788.782 186.49 809.965 204.436C811.965 206.128 814.888 203.257 812.888 201.565Z" fill="#2D8CFC"/>
</svg>
