<svg width="1128" height="856" viewBox="0 0 1128 856" fill="none" xmlns="http://www.w3.org/2000/svg">
<path d="M478.503 678.145V689.211C477.045 688.482 475.329 688.396 473.828 689.511C467.952 693.757 462.59 698.475 457.229 703.322L215.921 701.907L207 388.713C323.236 393.86 420.471 469.52 459.803 574.304C415.453 582.154 382.255 581.51 365.956 567.914C376.55 598.581 399.583 627.018 425.146 644.346C434.11 650.394 443.418 656.184 453.111 659.401L477.645 655.241C478.203 662.79 478.503 670.424 478.503 678.145Z" fill="#A1DAF8"/>
<path d="M693.433 195.357V285.944L905.746 294.437L905.016 185.578L693.433 195.357Z" fill="#FFDD00"/>
<path d="M700.038 157.742C693.218 153.067 686.098 148.821 679.707 143.545C677.563 141.744 674.432 144.832 676.619 146.633C683.31 152.166 690.687 156.627 697.85 161.517C700.167 163.104 702.354 159.329 700.038 157.742Z" fill="#2D8CFC"/>
<path d="M680.308 166.062C676.105 164.175 671.73 162.888 667.312 161.687C664.567 160.958 663.409 165.204 666.154 165.934C670.228 167.006 674.26 168.121 678.078 169.88C680.651 170.995 682.881 167.22 680.308 166.062Z" fill="#2D8CFC"/>
<path d="M722.856 321.717C719.553 323.99 716.765 326.864 713.377 328.966C710.975 330.467 713.162 334.241 715.607 332.74C719.039 330.638 721.826 327.722 725.086 325.491C727.402 323.904 725.172 320.087 722.856 321.717Z" fill="#2D8CFC"/>
<path d="M307.323 331.538L291.925 319.4L304.064 304.002L321.735 317.942L307.323 331.538Z" fill="#FFDD00"/>
<path d="M319.591 334.24C314.358 337.414 309.339 340.931 304.064 344.105C301.662 345.563 303.849 349.381 306.294 347.88C311.527 344.706 316.545 341.188 321.821 338.014C324.223 336.556 321.992 332.739 319.591 334.24Z" fill="#FFDD00"/>
<path d="M918.27 282.899C918.227 282.899 918.227 282.899 918.184 282.899L705.871 274.407C704.713 274.364 703.77 273.377 703.77 272.219V181.675C703.77 180.517 704.713 179.531 705.871 179.488L917.455 169.709C918.013 169.666 918.613 169.88 919.085 170.309C919.514 170.738 919.771 171.295 919.771 171.896L920.5 280.755C920.5 281.355 920.243 281.913 919.814 282.342C919.385 282.685 918.828 282.899 918.27 282.899ZM708.144 270.118L916.082 278.438L915.396 174.169L708.187 183.777V270.118H708.144Z" fill="#000200"/>
<path d="M863.026 236.619L786.122 235.118C784.921 235.075 783.934 234.088 783.977 232.888C784.02 231.687 784.963 230.743 786.164 230.743H786.207L860.667 232.158L857.879 190.382C857.793 189.181 858.737 188.109 859.938 188.023C861.139 187.937 862.211 188.881 862.297 190.082L865.213 234.26C865.256 234.861 865.042 235.461 864.613 235.933C864.227 236.362 863.626 236.619 863.026 236.619Z" fill="#000200"/>
<path d="M799.589 246.57C799.203 246.57 798.774 246.441 798.388 246.227L780.588 234.775C779.902 234.346 779.516 233.574 779.602 232.759C779.645 231.944 780.159 231.258 780.888 230.915L798.688 223.023C799.804 222.508 801.09 223.023 801.605 224.138C802.077 225.253 801.605 226.54 800.49 227.054L786.421 233.274L800.79 242.495C801.819 243.139 802.12 244.511 801.433 245.541C801.005 246.184 800.318 246.57 799.589 246.57Z" fill="#000200"/>
<path d="M445.305 577.392L435.097 493.882C453.283 491.995 566.731 479.514 596.326 476.254L599.971 538.575C601.172 537.503 602.631 536.688 604.218 536.13L600.529 473.68C600.486 473.08 600.229 472.522 599.757 472.136C599.285 471.75 598.685 471.579 598.084 471.622C542.068 477.798 435.525 489.507 432.523 489.722C431.923 489.722 431.365 490.022 430.936 490.451C430.507 490.923 430.336 491.566 430.421 492.167L440.758 576.749C442.345 576.835 443.846 577.049 445.305 577.392Z" fill="#000200"/>
<path d="M609.15 618.654C607.778 619.769 606.405 620.842 604.947 621.871L608.936 689.597L461.174 707.182L454.955 656.356C454.869 656.399 454.784 656.442 454.698 656.442C453.368 656.828 451.996 656.999 450.623 657.128L457.057 709.842C457.185 710.957 458.129 711.772 459.244 711.772C459.33 711.772 459.416 711.772 459.502 711.772L611.466 693.714C612.624 693.586 613.482 692.556 613.396 691.398L609.15 618.654Z" fill="#000200"/>
<path d="M551.332 546.769C551.975 546.812 552.662 546.812 553.305 546.812L549.102 553.203C548.673 551.659 548.63 549.986 549.059 548.399C549.316 547.369 550.26 546.683 551.332 546.769Z" fill="#000200"/>
<path d="M600.229 475.011L566.001 527.382L563.17 531.671C561.498 531.628 559.739 531.585 557.98 531.585L560.811 527.253L596.54 472.609C597.183 471.58 598.556 471.323 599.585 471.966C600.615 472.609 600.915 473.982 600.229 475.011Z" fill="#000200"/>
<path d="M613.01 692.772C612.581 693.373 611.895 693.716 611.209 693.716C610.78 693.716 610.351 693.587 609.965 693.33L542.111 645.849L537.393 642.546C539.237 642.117 541.124 641.646 543.097 641.174L547.772 644.434L612.538 689.77C613.482 690.413 613.697 691.786 613.01 692.772Z" fill="#000200"/>
<path d="M516.376 646.578L511.787 651.94L460.917 711.044C460.489 711.559 459.888 711.816 459.245 711.816C458.73 711.816 458.215 711.645 457.829 711.301C456.929 710.529 456.8 709.114 457.615 708.213L504.924 653.226L509.471 647.951C511.658 647.565 513.888 647.136 516.119 646.707C516.162 646.621 516.248 646.621 516.376 646.578Z" fill="#000200"/>
<path d="M521.566 548.699C520.922 549.815 520.322 550.973 519.679 552.088C519.593 552.259 519.507 552.388 519.421 552.56L515.732 550.115L431.408 493.755C430.378 493.069 430.121 491.697 430.807 490.71C431.494 489.681 432.866 489.423 433.853 490.11L517.877 546.255L521.566 548.699Z" fill="#000200"/>
<path d="M568.403 649.451C581.657 642.116 594.524 634.096 607.349 626.161L607.048 621.057C604.561 621.743 547 642.374 523.539 647.478C497.804 653.097 478.503 655.413 452.854 657.472L459.201 709.585L467.265 708.641C497.718 683.592 534.133 668.452 568.403 649.451Z" fill="#000200"/>
<path d="M460.574 577.736C459.502 577.736 458.558 576.921 458.387 575.806L453.883 541.107C453.797 540.464 454.012 539.863 454.398 539.391C454.827 538.919 455.427 538.662 456.028 538.662H489.74C490.813 538.662 491.756 539.477 491.928 540.549L496.088 568.643C496.26 569.844 495.445 570.959 494.244 571.131C493.086 571.303 491.928 570.488 491.756 569.287L487.853 543.037H458.515L462.676 575.291C462.847 576.492 461.99 577.608 460.789 577.736C460.789 577.736 460.66 577.736 460.574 577.736Z" fill="#000200"/>
<path d="M399.498 577.734C398.297 577.734 397.31 576.747 397.31 575.546V500.314C397.31 499.113 398.297 498.127 399.498 498.127C400.698 498.127 401.685 499.113 401.685 500.314V575.546C401.685 576.747 400.698 577.734 399.498 577.734Z" fill="#000200"/>
<path d="M399.498 691.611C398.297 691.611 397.31 690.624 397.31 689.423V665.361C397.31 664.16 398.297 663.174 399.498 663.174C400.698 663.174 401.685 664.16 401.685 665.361V689.423C401.685 690.624 400.698 691.611 399.498 691.611Z" fill="#000200"/>
<path d="M410.392 492.209C404.987 494.311 403.615 495.212 397.31 499.072C396.924 499.458 397.31 502.847 397.31 503.361V524.593C397.31 525.493 397.867 526.351 398.725 526.651C398.983 526.737 399.24 526.78 399.497 526.78C400.141 526.78 400.741 526.523 401.17 526.008C401.813 525.236 414.08 507.264 414.08 496.499C414.037 493.153 411.636 491.738 410.392 492.209Z" fill="#000200"/>
<path d="M576.381 348.436C576.253 348.351 576.124 348.222 575.953 348.136C574.88 347.579 573.551 348.05 572.993 349.123L545.414 404.195L489.355 348.78C488.497 347.922 487.081 347.922 486.266 348.78C485.409 349.637 485.409 351.053 486.266 351.868L544.47 409.471C544.899 409.9 545.457 410.114 546.014 410.114C546.143 410.114 546.272 410.114 546.357 410.072C547.044 409.943 547.644 409.514 547.987 408.871L576.381 352.211V348.436V348.436Z" fill="#000200"/>
<path d="M516.033 426.885C515.947 426.885 515.862 426.885 515.776 426.885C515.047 426.799 514.403 426.37 514.103 425.727L476.616 353.712C476.058 352.64 476.487 351.31 477.559 350.753C478.632 350.195 479.961 350.624 480.519 351.696L516.548 420.837L536.106 398.233C536.921 397.333 538.294 397.204 539.195 398.019C540.095 398.834 540.224 400.206 539.409 401.107L517.749 426.156C517.277 426.628 516.634 426.885 516.033 426.885Z" fill="#000200"/>
<path d="M571.964 410.115C571.492 410.115 570.977 409.943 570.591 409.643L552.019 395.017C551.162 394.374 550.947 393.216 551.419 392.272L573.036 351.654C573.336 351.096 573.808 350.71 574.409 350.539C575.009 350.367 575.653 350.496 576.167 350.839L587.362 358.087C588.177 358.602 588.563 359.632 588.263 360.575L574.023 408.571C573.808 409.257 573.294 409.815 572.564 410.029C572.393 410.072 572.178 410.115 571.964 410.115ZM556.18 392.701L570.763 404.153L583.587 360.833L575.781 355.771L556.18 392.701Z" fill="#000200"/>
<path d="M557.981 480.457C556.823 480.457 555.837 479.513 555.794 478.355L553.821 419.98L544.427 409.386C543.612 408.485 543.698 407.07 544.599 406.298C545.5 405.483 546.872 405.568 547.687 406.469L557.638 417.621C557.981 418.007 558.196 418.479 558.196 418.993L560.211 478.141C560.254 479.342 559.311 480.371 558.11 480.414C558.067 480.457 558.024 480.457 557.981 480.457Z" fill="#000200"/>
<path d="M643.379 697.831C642.221 697.831 641.234 696.887 641.191 695.729C640.805 686.208 631.841 462.786 631.841 460.898C631.841 459.697 632.827 458.711 634.028 458.711C635.229 458.711 636.216 459.697 636.216 460.898C636.259 463.944 645.48 693.242 645.566 695.558C645.609 696.759 644.665 697.788 643.464 697.831C643.422 697.831 643.379 697.831 643.379 697.831Z" fill="#000200"/>
<path d="M498.104 245.456C499.949 220.45 512.001 181.376 512.001 181.376C523.196 191.755 602.416 195.916 611.638 191.198C607.95 170.824 593.409 152.467 548.845 152.467C496.088 152.467 478.503 174.427 478.503 209.555C478.503 244.684 478.503 244.684 478.503 244.684L478.932 245.413C486.609 244.555 490.341 245.498 498.104 245.456Z" fill="#000200"/>
<path d="M578.097 274.408C576.896 274.408 575.91 273.421 575.91 272.22C575.91 271.019 576.896 270.033 578.097 270.033C582.215 270.033 585.603 268.918 587.148 267.073C588.048 266.044 588.348 264.757 588.091 263.213C587.534 259.739 579.813 257.809 576.124 257.423C575.009 257.294 574.151 256.35 574.151 255.235V235.119C574.151 233.918 575.138 232.932 576.339 232.932C577.54 232.932 578.526 233.918 578.526 235.119V253.348C582.601 254.077 591.351 256.308 592.38 262.527C592.852 265.358 592.209 267.931 590.493 269.947C588.048 272.821 583.63 274.408 578.097 274.408Z" fill="#000200"/>
<path d="M590.578 231.387V235.762C590.578 241.424 599.371 241.424 599.371 235.762V231.387C599.371 225.725 590.578 225.725 590.578 231.387Z" fill="#000200"/>
<path d="M537.693 231.387V235.762C537.693 241.424 546.486 241.424 546.486 235.762V231.387C546.486 225.725 537.693 225.725 537.693 231.387Z" fill="#000200"/>
<path d="M539.323 210.156C535.806 210.928 532.375 211.871 529.072 213.287C526.499 214.402 528.729 218.176 531.302 217.061C534.262 215.774 537.393 215.045 540.524 214.359C543.269 213.801 542.111 209.555 539.323 210.156Z" fill="#000200"/>
<path d="M600.486 209.384C598.256 207.882 595.725 206.767 593.623 205.095C591.436 203.379 588.305 206.467 590.535 208.183C592.98 210.113 595.725 211.442 598.299 213.158C600.615 214.788 602.802 210.971 600.486 209.384Z" fill="#000200"/>
<path d="M550.647 294.266C547.344 293.752 543.012 292.25 542.755 288.347C542.583 285.559 538.165 285.516 538.38 288.347C538.766 294.309 543.998 297.655 549.489 298.513C552.234 298.942 553.435 294.695 550.647 294.266Z" fill="#000200"/>
<path d="M615.241 223.795C615.112 216.976 614.984 209.856 614.855 202.478C614.297 167.822 592.08 150.279 548.802 150.279C499.348 150.279 476.315 169.109 476.315 209.598V244.726C476.315 245.927 477.302 246.914 478.503 246.914C479.704 246.914 480.69 245.927 480.69 244.726V209.598C480.69 171.639 501.707 154.697 548.802 154.697C589.806 154.697 609.965 170.353 610.48 202.564C610.609 209.941 610.737 217.061 610.866 223.881C612.11 288.304 612.882 327.207 591.651 339.474C573.422 349.982 540.524 348.009 540.181 347.966C539.452 347.923 538.723 348.266 538.294 348.867C537.865 349.467 537.736 350.239 537.993 350.969C541.939 361.434 556.394 367.439 564.972 370.141C567.803 364.437 570.891 358.861 574.151 353.413V350.368C574.151 350.282 574.151 350.239 574.151 350.154C581.142 348.781 588.091 346.594 593.838 343.291C617.343 329.694 616.528 289.848 615.241 223.795Z" fill="#000200"/>
<path d="M483.821 278.611L484.036 287.361C485.494 287.361 486.952 287.361 488.411 287.318L488.111 276.295C488.111 275.694 487.853 275.137 487.424 274.751C486.995 274.365 486.438 274.107 485.837 274.15C478.245 274.451 472.326 272.778 468.681 269.261C465.378 266.087 464.906 262.441 464.906 260.554C464.906 257.465 466.021 254.806 468.295 252.662C472.927 248.244 482.234 246.271 495.23 246.957C496.389 247 497.461 246.099 497.547 244.855C497.59 243.654 496.689 242.625 495.445 242.539C481.033 241.81 470.868 244.126 465.292 249.445C461.389 253.176 460.531 257.508 460.531 260.511C460.531 264.971 462.376 269.218 465.678 272.392C468.595 275.308 474.085 278.525 483.821 278.611Z" fill="#000200"/>
<path d="M484.336 274.493C476.144 275.007 467.094 273.077 464.092 268.488C458.387 259.652 461.432 249.959 483.093 241.938C491.07 238.978 495.746 225.167 497.676 217.275C501.407 202.092 503.852 186.651 505.997 171.167C506.168 169.923 505.696 168.937 504.453 168.465C502.737 167.821 501.965 167.521 501.236 167.35C500.935 167.092 500.549 166.921 500.078 166.878C477.602 165.119 458.773 189.91 448.222 206.767C431.451 233.574 436.341 264.627 438.014 294.609C425.532 293.751 412.965 302.629 403.829 310.092C391.262 320.301 383.155 333.511 383.327 350.153C383.627 383.651 417.769 396.09 446.42 394.546C477.774 392.873 507.455 374.001 515.905 342.518C523.711 313.61 520.237 272.262 484.336 274.493Z" fill="#000200"/>
<path d="M791.311 325.748C791.097 325.748 790.84 325.705 790.625 325.619C789.467 325.233 788.867 323.99 789.253 322.832C799.246 293.365 807.739 259.138 804.007 255.149C803.064 254.162 802.292 253.733 801.734 253.862C796.587 254.977 787.709 282.085 783.891 293.665C783.505 294.823 782.261 295.424 781.103 295.081C779.945 294.695 779.345 293.451 779.688 292.293C789.896 261.239 795.043 250.86 800.748 249.573C802.935 249.101 805.123 249.959 807.181 252.146C814.473 259.953 798.474 309.321 793.37 324.247C793.113 325.191 792.255 325.748 791.311 325.748Z" fill="#000200"/>
<path d="M707.201 525.623C691.417 525.623 671.816 509.538 666.068 474.153C656.932 418.179 629.053 379.363 585.389 361.991C584.274 361.563 583.717 360.276 584.146 359.118C584.617 358.003 585.861 357.445 587.019 357.874C632.184 375.888 661.007 415.82 670.4 473.424C675.762 506.236 693.219 521.205 707.201 521.205C707.201 521.205 707.201 521.205 707.244 521.205C719.383 521.205 728.304 510.653 731.135 493.025C733.665 477.241 735.896 455.28 738.255 432.076C742.973 385.496 747.862 337.329 756.398 323.646C769.094 303.359 779.388 287.961 788.095 287.703C789.853 287.661 792.298 288.218 794.4 291.135C800.276 299.413 791.397 315.068 782.905 326.735C781.446 328.751 781.79 331.496 783.72 333.126C791.869 340.031 805.123 354.271 801.82 372.157C801.606 373.358 800.447 374.173 799.246 373.915C798.046 373.701 797.273 372.543 797.488 371.342C800.405 355.601 788.352 342.733 780.889 336.428C777.2 333.297 776.514 328.021 779.345 324.118C789.81 309.707 794.099 298.298 790.84 293.665C789.81 292.25 788.91 292.078 788.266 292.078C781.232 292.293 768.107 313.267 760.258 325.834C752.194 338.744 747.133 388.541 742.673 432.505C740.314 455.795 738.083 477.799 735.51 493.711C732.293 513.356 721.484 525.58 707.201 525.623Z" fill="#000200"/>
<path d="M816.446 305.89C813.186 301.086 807.61 298.255 798.903 297.054C798.689 297.011 798.517 297.054 798.303 297.054C798.217 297.698 798.131 298.341 798.046 298.984C797.96 299.756 797.874 300.486 797.831 301.258C798.003 301.3 798.131 301.343 798.303 301.386C805.68 302.416 810.27 304.603 812.8 308.335C815.931 312.967 816.146 320.602 813.401 331.668C813.229 332.311 813.058 332.912 812.8 333.469C812.371 334.499 811.085 336.858 808.983 336.171C805.766 335.099 802.635 328.108 805.637 315.884C805.938 314.726 805.208 313.525 804.05 313.224C802.892 312.924 801.691 313.653 801.391 314.811C797.917 329.008 801.863 338.359 807.61 340.289C808.339 340.546 809.069 340.675 809.798 340.675C812.714 340.675 815.331 338.702 816.832 335.185C817.175 334.456 817.432 333.598 817.647 332.697C820.778 320.216 820.392 311.68 816.446 305.89Z" fill="#000200"/>
<path d="M822.408 339.903C819.748 339.903 817.003 339.003 814.73 337.287C813.744 336.558 813.572 335.185 814.301 334.199C815.03 333.212 816.403 333.041 817.389 333.77C819.491 335.357 822.236 335.915 824.381 335.185C825.968 334.628 826.997 333.47 827.426 331.668C830.257 320.173 829.956 312.367 826.439 307.778C822.922 303.145 816.017 301.044 803.407 300.701C802.206 300.658 801.219 299.671 801.262 298.427C801.305 297.226 801.133 296.068 802.249 296.068C817.904 296.068 825.496 299.285 829.914 305.076C834.331 310.866 834.889 319.659 831.672 332.698C830.857 335.915 828.798 338.231 825.839 339.303C824.767 339.732 823.609 339.903 822.408 339.903Z" fill="#000200"/>
<path d="M836.519 340.674C833.516 340.674 830.729 338.487 829.056 334.884C828.541 333.769 829.013 332.482 830.128 331.967C831.243 331.453 831.372 330.809 831.887 331.924C832.83 333.983 835.447 336.342 836.69 336.256C838.02 336.128 839.221 334.541 839.822 332.053C842.395 321.63 842.181 314.468 839.221 310.178C836.733 306.618 832.101 304.56 824.595 303.702C823.394 303.573 819.62 301.429 819.748 300.228C819.877 299.027 823.909 299.198 825.11 299.327C833.945 300.356 839.607 303.016 842.824 307.691C846.641 313.181 847.027 321.244 844.111 333.125C843.038 337.543 840.422 340.331 837.119 340.631C836.948 340.674 836.733 340.674 836.519 340.674Z" fill="#000200"/>
<path d="M716.294 629.12C663.538 629.12 637.117 584.298 636.773 583.741C636.173 582.668 636.516 581.339 637.588 580.738C638.661 580.138 639.99 580.481 640.591 581.553C642.049 584.084 677.134 643.317 749.406 618.955C819.062 595.45 826.096 509.324 825.324 446.574C824.895 409.944 827.898 387.126 830.857 365.037C832.058 356.072 833.174 347.58 834.074 338.273C834.203 337.072 835.275 336.128 836.476 336.3C837.677 336.428 838.578 337.5 838.449 338.701C837.548 348.095 836.433 356.587 835.232 365.637C832.316 387.555 829.313 410.202 829.742 446.531C830.214 483.46 831.544 595.922 750.822 623.115C738.298 627.361 726.76 629.12 716.294 629.12Z" fill="#000200"/>
<path d="M796.544 425.213C779.087 425.213 760.858 418.779 742.072 405.912C741.085 405.226 740.828 403.853 741.514 402.867C742.2 401.88 743.573 401.623 744.56 402.309C774.326 422.683 801.305 426.328 827.083 413.461C828.155 412.903 829.485 413.375 830.042 414.447C830.6 415.52 830.128 416.849 829.056 417.407C818.547 422.597 807.696 425.213 796.544 425.213Z" fill="#000200"/>
<path d="M795.429 450.907C777.972 450.907 759.743 444.473 740.957 431.605C739.97 430.919 739.713 429.547 740.399 428.56C741.085 427.574 742.458 427.316 743.444 428.003C773.211 448.376 800.19 452.022 825.968 439.154C827.04 438.597 828.369 439.069 828.927 440.141C829.485 441.213 829.013 442.543 827.941 443.1C817.432 448.29 806.581 450.907 795.429 450.907Z" fill="#000200"/>
<path d="M637.03 537.633C643.335 572.933 661.907 608.104 661.907 608.104L639.003 586.872L637.03 537.633Z" fill="#000200"/>
<path d="M610.309 552.773C604.862 564.826 598.642 574.519 572.478 580.824C571.32 581.124 570.119 580.395 569.819 579.194C569.519 577.993 570.248 576.835 571.449 576.535C595.726 570.702 601.216 562.252 606.32 550.972C609.537 543.809 609.322 540.12 608.55 538.276C608.035 537.032 607.092 536.174 605.676 535.616C603.146 534.63 598.942 540.592 595.297 545.868L593.238 548.784C590.064 553.245 578.612 556.934 559.182 559.764C556.18 560.193 553.134 559.121 551.118 556.848C550.175 555.775 549.489 554.574 549.145 553.245C548.717 551.701 548.674 550.028 549.103 548.441C549.36 547.412 550.304 546.725 551.376 546.811C552.019 546.854 552.705 546.854 553.349 546.854C564.243 546.811 576.339 541.192 576.853 535.616C576.939 534.759 576.682 534.373 576.467 534.072C574.923 532.357 569.605 531.885 563.214 531.756C561.541 531.713 559.783 531.67 558.024 531.67C557.724 531.67 557.466 531.67 557.166 531.67C553.692 531.628 549.918 531.585 546.014 531.456C532.975 530.941 527.013 539.176 521.609 548.784C520.966 549.899 520.365 551.057 519.722 552.173C519.636 552.344 519.55 552.473 519.465 552.644C518.349 554.66 517.277 556.633 516.119 558.563C506.125 575.205 448.007 579.58 430.422 580.481C424.631 580.781 419.141 580.953 414.037 580.953C381.525 580.953 363.039 574.691 357.678 561.952C350.601 545.01 364.841 515.672 405.202 494.741C406.274 494.183 407.603 494.612 408.161 495.684C408.719 496.757 408.29 498.086 407.217 498.644C370.545 517.645 355.319 544.924 361.752 560.279C367.028 572.932 390.061 578.294 430.207 576.149C474.3 573.833 506.554 566.027 512.345 556.333C513.546 554.36 514.661 552.258 515.776 550.2C515.776 550.157 515.819 550.114 515.819 550.114C516.505 548.87 517.191 547.626 517.878 546.339C523.496 536.346 530.616 526.438 546.1 527.081C550.003 527.21 553.735 527.253 557.166 527.295C558.453 527.295 559.654 527.338 560.812 527.338C562.656 527.381 564.372 527.424 565.959 527.467C572.693 527.767 577.282 528.539 579.641 531.156C580.842 532.485 581.314 534.115 581.143 536.045C580.285 544.881 565.659 551.272 553.134 551.272C553.22 552.258 553.649 553.159 554.335 553.931C555.408 555.132 556.909 555.69 558.496 555.432C575.652 552.945 587.319 549.513 589.635 546.254L591.651 543.38C596.712 536.174 601.473 529.354 607.221 531.542C609.751 532.528 611.595 534.287 612.582 536.646C614.169 540.463 613.44 545.91 610.309 552.773Z" fill="#000200"/>
<path d="M575.008 600.555C574.108 600.555 573.293 599.998 572.95 599.14C572.521 597.982 573.121 596.738 574.236 596.309C574.451 596.223 596.54 587.945 605.933 577.222C614.855 567.057 615.97 557.235 609.407 547.198C608.721 546.169 609.021 544.839 610.051 544.153C611.08 543.467 612.41 543.767 613.096 544.796C620.817 556.549 619.53 568.429 609.279 580.139C599.156 591.677 576.767 600.083 575.823 600.427C575.523 600.512 575.223 600.555 575.008 600.555Z" fill="#000200"/>
<path d="M579.04 619.213C578.225 619.213 577.41 618.742 577.067 617.97C576.553 616.854 577.024 615.568 578.097 615.053C578.225 614.967 592.723 608.062 604.132 599.869C614.683 592.278 618.2 580.354 613.782 567.229C613.396 566.071 613.997 564.827 615.155 564.441C616.313 564.055 617.557 564.655 617.943 565.814C622.961 580.697 618.758 594.765 606.705 603.429C594.953 611.879 580.627 618.699 580.027 618.999C579.641 619.171 579.34 619.213 579.04 619.213Z" fill="#000200"/>
<path d="M496.474 659.402C495.917 659.402 495.316 659.187 494.887 658.758C473.871 637.184 468.638 608.146 479.403 572.418C479.747 571.26 480.99 570.616 482.149 570.959C483.307 571.302 483.95 572.546 483.607 573.704C473.227 608.232 477.945 635.039 498.061 655.713C498.919 656.571 498.876 657.986 498.018 658.801C497.59 659.187 497.032 659.402 496.474 659.402Z" fill="#000200"/>
<path d="M472.026 663.521C471.469 663.521 470.868 663.306 470.439 662.877C449.422 641.303 444.189 612.265 454.955 576.537C455.298 575.379 456.542 574.735 457.7 575.078C458.858 575.422 459.502 576.665 459.159 577.824C448.779 612.351 453.497 639.158 473.613 659.832C474.471 660.69 474.428 662.105 473.57 662.92C473.141 663.306 472.584 663.521 472.026 663.521Z" fill="#000200"/>
<path d="M609.708 619.77C602.417 628.392 571.149 638.385 547.73 644.433C545.8 644.948 543.913 645.419 542.068 645.848C534.048 647.821 527.442 649.151 523.839 649.666C522.681 649.837 520.279 650.309 516.848 650.953C515.132 651.296 513.417 651.596 511.701 651.939C509.385 652.368 507.112 652.797 504.838 653.183C457.529 661.718 418.97 665.192 387.573 665.192C321.391 665.192 286.95 649.752 269.064 633.667C250.964 617.368 242.986 594.765 245.431 566.456C258.641 411.618 464.306 354.143 485.58 348.653V348.053C487.038 348.911 488.54 349.683 490.041 350.498C489.998 351.484 489.312 352.299 488.325 352.513C430.079 365.595 261.258 433.107 249.848 566.842C247.575 593.692 255.038 615.052 272.066 630.407C298.058 653.783 360.294 675.615 509.471 647.907C511.658 647.521 513.889 647.092 516.119 646.663C516.205 646.663 516.29 646.62 516.419 646.62C519.808 645.977 522.167 645.505 523.325 645.377C526.842 644.862 531.731 643.918 537.436 642.589C539.28 642.16 541.168 641.688 543.141 641.216C567.074 635.254 599.972 624.66 606.405 616.982C614.684 607.16 610.352 599.869 610.137 599.568C609.494 598.539 609.794 597.209 610.823 596.566C611.853 595.923 613.182 596.223 613.826 597.209C614.04 597.595 620.131 607.375 609.708 619.77Z" fill="#000200"/>
</svg>
