<svg width="878" height="747" viewBox="0 0 878 747" fill="none" xmlns="http://www.w3.org/2000/svg">
<path d="M614.635 209.304L588.771 235.114L474.946 121.158C479.324 113.495 484.278 106.178 489.751 99.3225L496.317 91.4873L496.605 91.1992L614.635 209.304Z" fill="#2D8CFC"/>
<path d="M694.877 159.816C670.165 159.816 650.062 139.71 650.062 114.994C650.062 88.6078 668.495 70.1719 694.877 70.1719C719.589 70.1719 739.693 90.2785 739.693 114.994C739.693 140.977 720.857 159.816 694.877 159.816ZM694.877 74.6656C671.145 74.6656 654.555 91.2579 654.555 114.994C654.555 137.232 672.642 155.323 694.877 155.323C718.264 155.323 735.2 138.385 735.2 114.994C735.2 92.7559 717.112 74.6656 694.877 74.6656Z" fill="#000200"/>
<path d="M662.965 412.448C662.331 412.448 661.697 412.16 661.294 411.699C654.036 403.518 650.004 392.917 650.004 381.971C650.004 355.584 668.437 337.148 694.82 337.148C719.532 337.148 739.635 357.255 739.635 381.971C739.635 387.041 738.944 391.938 737.504 396.547C737.331 397.18 736.813 397.699 736.179 397.987C713.426 407.09 688.771 411.929 662.965 412.448C662.965 412.448 663.022 412.448 662.965 412.448ZM694.877 341.642C671.145 341.642 654.555 358.234 654.555 381.971C654.555 391.477 657.896 400.695 664.002 407.954C688.483 407.378 711.87 402.769 733.587 394.185C734.681 390.325 735.2 386.234 735.2 381.971C735.2 359.732 717.112 341.642 694.877 341.642Z" fill="#000200"/>
<path d="M707.954 308.63C683.53 308.63 661.467 295.149 650.35 273.372C649.774 272.277 650.235 270.894 651.329 270.318C652.424 269.742 653.806 270.203 654.382 271.298C664.751 291.52 685.258 304.079 707.954 304.079C742.804 304.079 768.092 278.787 768.092 243.932C768.092 210.747 741.133 183.785 707.954 183.785C672.527 183.785 647.815 208.5 647.815 243.932C647.815 245.199 646.836 246.179 645.569 246.179C644.302 246.179 643.322 245.199 643.322 243.932C643.322 205.85 669.878 179.291 707.954 179.291C743.61 179.291 772.585 208.27 772.585 243.932C772.585 281.437 745.396 308.63 707.954 308.63Z" fill="#000200"/>
<path d="M714.117 91.661C706.168 103.241 697.182 115.224 692.746 128.706C687.965 123.002 683.472 117.068 678.691 111.364C676.79 109.175 673.622 112.344 675.523 114.533C681.168 121.216 686.352 128.302 692.113 134.928C693.207 136.195 695.454 135.504 695.857 133.948C699.543 119.142 709.566 106.237 718.034 93.9079C719.647 91.5458 715.73 89.2989 714.117 91.661Z" fill="#000200"/>
<path d="M705.765 371.77C700.465 379.663 695.742 387.959 689.751 395.391C686.179 392.337 683.53 388.42 680.016 385.251C677.884 383.292 674.716 386.461 676.847 388.42C681.11 392.28 684.278 397.119 688.944 400.518C689.693 401.037 691.076 400.864 691.652 400.173C698.507 392.049 703.748 382.831 709.624 374.017C711.237 371.597 707.378 369.35 705.765 371.77Z" fill="#000200"/>
<path d="M703.288 200.319V258.161C703.288 261.042 707.781 261.042 707.781 258.161V200.319C707.781 197.438 703.288 197.438 703.288 200.319Z" fill="#000200"/>
<path d="M707.205 278.154C707.666 276.022 708.069 273.833 708.357 271.701C708.76 268.878 704.382 267.899 703.979 270.779C703.691 272.968 703.288 275.1 702.827 277.232C702.194 280.055 706.571 281.034 707.205 278.154Z" fill="#000200"/>
<path d="M604.728 347.921H515.672C514.405 347.921 513.426 346.942 513.426 345.675C513.426 344.407 514.405 343.428 515.672 343.428H604.728C605.995 343.428 606.974 344.407 606.974 345.675C606.974 346.942 605.995 347.921 604.728 347.921Z" fill="#000200"/>
<path d="M604.729 119.66H544.763C543.496 119.66 542.517 118.68 542.517 117.413C542.517 116.145 543.496 115.166 544.763 115.166H604.729C605.996 115.166 606.975 116.145 606.975 117.413C606.975 118.623 605.996 119.66 604.729 119.66Z" fill="#000200"/>
<path d="M612.735 245.484H469.417C469.359 245.484 469.302 245.484 469.244 245.484C469.59 246.982 469.878 248.48 470.108 249.978H612.793C614.06 249.978 615.039 248.999 615.039 247.731C614.982 246.521 613.945 245.484 612.735 245.484Z" fill="#000200"/>
<path d="M658.818 438.487C632.09 438.487 606.053 433.762 581.399 424.372C563.772 417.804 546.894 408.759 531.226 397.582C473.852 356.447 439.578 289.789 439.578 219.272C439.578 90.1631 529.728 0 658.818 0C779.671 0 878 98.344 878 219.272C878 346.307 785.777 438.487 658.818 438.487ZM658.818 4.49375C532.378 4.49375 444.071 92.8133 444.071 219.272C444.071 288.349 477.654 353.624 533.875 393.952C549.198 404.899 565.73 413.713 583.012 420.223C607.147 429.384 632.666 433.993 658.818 433.993C783.242 433.993 873.507 343.714 873.507 219.272C873.507 100.821 777.194 4.49375 658.818 4.49375Z" fill="#000200"/>
<path d="M658.819 412.502C552.252 412.502 465.559 325.795 465.559 219.27C465.559 181.938 474.602 146.506 491.711 116.778C496.089 109.116 501.1 101.626 506.688 94.6552L513.312 86.7623C513.312 86.7623 513.6 86.4167 513.658 86.4167C549.084 46.8947 599.315 26.0391 658.819 26.0391C765.329 26.0391 852.022 112.745 852.022 219.328C852.022 302.174 808.762 368.947 736.296 397.983C713.485 407.144 688.831 411.983 663.082 412.502C661.642 412.502 660.202 412.502 658.819 412.502ZM658.819 30.4752C600.582 30.4752 551.561 50.8123 516.999 89.3549L510.202 97.4206C504.787 104.219 499.89 111.478 495.628 118.968C478.923 148.062 470.052 182.744 470.052 219.27C470.052 323.318 554.729 408.008 658.819 408.008C660.202 408.008 661.584 408.008 662.909 407.95C688.14 407.49 712.276 402.708 734.568 393.778C805.248 365.433 847.472 300.216 847.472 219.27C847.472 115.165 762.852 30.4752 658.819 30.4752Z" fill="#000200"/>
<path d="M386.353 746.999C385.95 746.999 385.547 746.883 385.201 746.653L350.523 725.394C349.487 724.76 349.141 723.435 349.717 722.398L384.625 659.486C385.201 658.391 386.583 657.988 387.678 658.621C388.772 659.198 389.176 660.58 388.542 661.675L354.671 722.686L385.547 741.641L427.828 672.045C428.461 671.008 429.844 670.662 430.938 671.296C431.975 671.93 432.321 673.313 431.687 674.407L388.254 745.962C387.966 746.48 387.447 746.826 386.871 746.999C386.756 746.999 386.526 746.999 386.353 746.999Z" fill="#000200"/>
<path d="M471.722 606.427C471.319 606.427 470.915 606.312 470.57 606.081C469.533 605.448 469.187 604.065 469.821 602.97L580.305 421.088C580.939 420.051 582.321 419.706 583.416 420.34C584.452 420.973 584.798 422.356 584.164 423.451L473.68 605.332C473.22 606.024 472.471 606.427 471.722 606.427Z" fill="#000200"/>
<path d="M432.263 579.811C431.917 579.811 431.514 579.696 431.168 579.523C430.074 578.947 429.67 577.565 430.304 576.47L530.592 394.646C531.168 393.551 532.551 393.148 533.645 393.782C534.74 394.358 535.143 395.74 534.509 396.835L434.221 578.659C433.818 579.408 433.011 579.811 432.263 579.811Z" fill="#000200"/>
<path d="M471.721 606.426C471.318 606.426 470.915 606.311 470.569 606.08C469.532 605.447 469.187 604.064 469.82 602.969L551.906 467.754C537.044 460.149 522.125 452.774 507.493 445.803L439.29 569.381C438.714 570.476 437.332 570.879 436.237 570.246C435.143 569.67 434.74 568.287 435.373 567.192L504.613 441.77C505.189 440.733 506.456 440.33 507.551 440.849C523.565 448.396 539.924 456.462 556.168 464.873C556.745 465.161 557.148 465.68 557.321 466.256C557.493 466.832 557.378 467.523 557.09 468.042L473.68 605.332C473.219 606.023 472.47 606.426 471.721 606.426Z" fill="#000200"/>
<path d="M396.952 729.6C396.549 729.6 396.203 729.484 395.858 729.312L359.913 708.571C358.876 707.938 358.473 706.612 359.049 705.518L384.683 659.486C385.259 658.391 386.641 657.988 387.736 658.621C388.83 659.198 389.233 660.58 388.6 661.675L364.06 705.806L396.146 724.299L427.885 672.045C428.519 671.008 429.902 670.662 430.996 671.296C432.033 671.93 432.378 673.313 431.745 674.407L398.853 728.563C398.45 729.196 397.701 729.6 396.952 729.6Z" fill="#000200"/>
<path d="M607.493 234.02C606.917 234.02 606.341 233.79 605.88 233.387L492.055 119.43C491.364 118.738 491.191 117.586 491.71 116.722C496.088 109.06 501.099 101.57 506.687 94.5989L513.311 86.706C513.714 86.2451 514.463 85.7842 515.097 85.7266C515.73 85.7266 516.479 85.7842 516.94 86.2451L635.028 204.35C635.431 204.753 635.661 205.33 635.661 205.963C635.661 206.539 635.431 207.115 635.028 207.576L609.164 233.387C608.645 233.79 608.069 234.02 607.493 234.02ZM496.433 117.471L607.493 228.547L630.189 205.906L515.442 91.1997L510.2 97.4795C505.131 103.759 500.523 110.5 496.433 117.471Z" fill="#000200"/>
<path d="M645.57 243.987L632.033 207.922L609.51 230.448L645.57 243.987Z" fill="#000200"/>
<path d="M645.57 246.236C645.282 246.236 645.051 246.178 644.763 246.12L608.703 232.581C608.012 232.293 607.436 231.717 607.321 230.968C607.206 230.219 607.378 229.47 607.954 228.894L630.477 206.368C630.996 205.849 631.802 205.619 632.551 205.734C633.3 205.907 633.934 206.426 634.164 207.117L647.701 243.182C647.989 243.989 647.816 244.91 647.183 245.544C646.722 246.005 646.146 246.236 645.57 246.236ZM613.542 229.586L641.71 240.129L631.169 211.956L613.542 229.586Z" fill="#000200"/>
<path d="M428.114 675.445C416.535 675.445 400.636 670.778 379.265 656.317C355.821 640.474 347.814 640.993 314.116 643.067C294.012 644.334 266.477 646.005 222.18 645.256C77.537 642.663 5.01384 602.853 0.578345 523.521C-4.49079 432.494 67.9171 385.54 122.871 358.117C177.134 331.039 273.563 329.08 274.484 329.08C275.809 329.08 276.731 330.059 276.788 331.269C276.788 332.537 275.809 333.516 274.599 333.574C273.62 333.574 178.228 335.533 124.887 362.149C71.0854 388.997 0.175112 434.914 5.07143 523.291C9.33411 599.8 80.4172 638.227 222.238 640.762C266.42 641.569 293.839 639.84 313.828 638.573C347.065 636.499 357.088 635.865 381.8 652.573C421.547 679.42 440.268 670.951 447.872 663.519C448.736 662.655 450.176 662.655 451.04 663.577C451.904 664.441 451.904 665.881 450.982 666.745C446.777 670.893 439.519 675.445 428.114 675.445Z" fill="#000200"/>
<path d="M441.823 556.419C441.42 556.419 441.017 556.304 440.613 556.073C425.809 546.74 356.8 545.184 290.095 543.744C237.56 542.592 183.297 541.382 152.825 536.37C126.212 531.991 111.869 519.029 114.461 501.63C117.399 481.753 143.781 460.783 172.122 464.585C173.274 464.758 174.081 465.68 174.081 466.832C174.081 468.042 173.62 496.272 149.426 517.127C148.505 517.934 147.065 517.819 146.258 516.897C145.452 515.975 145.567 514.535 146.489 513.728C165.555 497.251 168.896 475.474 169.472 468.791C144.3 466.601 121.546 484.864 118.954 502.263C116.765 517.07 129.38 527.901 153.631 531.876C183.758 536.831 237.906 538.041 290.268 539.193C360.659 540.748 427.192 542.189 443.09 552.213C444.127 552.904 444.473 554.287 443.782 555.324C443.263 556.073 442.572 556.419 441.823 556.419Z" fill="#000200"/>
<path d="M120.048 491.777C119.126 491.777 118.32 491.201 117.974 490.337C109.046 467.061 65.0941 435.72 24.9443 441.712C23.7346 441.885 22.5825 441.021 22.4097 439.811C22.2369 438.601 23.101 437.449 24.3106 437.276C67.1678 430.881 112.56 463.547 122.179 488.723C122.64 489.876 122.064 491.201 120.912 491.604C120.567 491.719 120.279 491.777 120.048 491.777Z" fill="#000200"/>
<path d="M472.18 599.972C470.683 603.372 468.494 603.66 467.63 603.717C457.319 604.87 436.466 583.495 431.512 571.397C431.051 570.245 429.726 569.726 428.574 570.187C427.422 570.648 426.904 571.973 427.365 573.125C432.319 585.224 453.229 608.269 466.881 608.269C467.284 608.269 467.745 608.269 468.148 608.211C471.662 607.808 476.155 605.561 477.653 597.149C475.81 597.956 473.966 598.878 472.18 599.972Z" fill="#000200"/>
<path d="M465.326 628.551C456.512 628.551 445.683 625.67 433.01 617.662C431.973 617.028 431.627 615.588 432.319 614.551C432.952 613.514 434.335 613.168 435.429 613.86C470.28 635.752 485.602 616.395 487.273 614.09C491.939 607.58 489.807 593.695 483.068 586.609C482.204 585.687 482.261 584.305 483.125 583.44C484.047 582.576 485.429 582.634 486.293 583.498C494.588 592.255 496.835 608.386 490.902 616.683C486.812 622.386 478.229 628.551 465.326 628.551Z" fill="#000200"/>
<path d="M458.759 648.137C449.081 648.137 436.639 642.779 420.107 635.001C418.955 634.483 418.494 633.158 419.012 632.005C419.531 630.911 420.856 630.392 422.008 630.911C444.704 641.569 459.105 647.503 467.918 640.705C476.501 634.022 475.522 627.051 475.464 626.763C475.291 625.553 476.098 624.401 477.307 624.17C478.517 623.94 479.669 624.804 479.9 626.014C479.957 626.417 481.455 635.865 470.683 644.277C467.227 646.927 463.31 648.137 458.759 648.137Z" fill="#000200"/>
<path d="M446.662 665.996C436.985 665.996 424.542 660.638 408.01 652.861C406.858 652.342 406.397 651.017 406.916 649.865C407.434 648.77 408.759 648.252 409.911 648.77C432.607 659.428 447.008 665.362 455.821 658.564C464.404 651.881 463.425 644.91 463.367 644.622C463.195 643.412 464.001 642.26 465.211 642.029C466.42 641.799 467.572 642.606 467.803 643.873C467.86 644.276 469.358 653.725 458.586 662.136C455.13 664.844 451.213 665.996 446.662 665.996Z" fill="#000200"/>
<path d="M146.028 534.928C145.97 534.928 145.855 534.928 145.797 534.928C144.588 534.812 143.666 533.66 143.781 532.45L150.924 467.694C151.039 466.484 152.134 465.562 153.401 465.678C154.611 465.793 155.532 466.945 155.417 468.155L148.274 532.911C148.101 534.063 147.18 534.928 146.028 534.928Z" fill="#000200"/>
<path d="M173.217 466.371L153.114 467.869L150.118 512.691L165.786 493.737L173.217 466.371Z" fill="#000200"/>
<path d="M333.587 391.186C330.476 391.186 327.02 390.898 323.276 390.265C300.637 386.462 278.229 366.413 270.51 349.936C266.824 342.101 266.421 335.245 269.358 330.175C269.992 329.08 271.374 328.735 272.411 329.369C273.506 330.002 273.851 331.385 273.218 332.422C270.51 337.146 272.469 343.484 274.6 347.977C281.858 363.417 302.826 382.199 324.082 385.771C335.718 387.73 343.725 386.52 347.872 382.141C351.501 378.339 352.423 371.886 350.637 362.956C350.407 361.747 351.156 360.537 352.365 360.306C353.575 360.076 354.785 360.825 355.015 362.035C357.147 372.52 355.822 380.355 351.098 385.252C347.296 389.228 341.421 391.186 333.587 391.186Z" fill="#000200"/>
<path d="M429.497 552.097C428.23 552.097 427.251 551.118 427.251 549.85C427.251 427.424 409.278 379.203 358.299 352.874C357.205 352.298 356.744 350.973 357.32 349.821C357.896 348.726 359.221 348.265 360.373 348.841C413.195 376.092 431.744 425.293 431.744 549.793C431.744 551.118 430.707 552.097 429.497 552.097Z" fill="#000200"/>
<path d="M395.223 547.661C395.165 547.661 395.107 547.661 395.05 547.661C393.84 547.546 392.861 546.509 392.976 545.241L397.757 479.621C397.872 478.353 398.967 477.432 400.176 477.547C401.386 477.662 402.365 478.699 402.25 479.967L397.469 545.587C397.354 546.739 396.375 547.661 395.223 547.661Z" fill="#000200"/>
<path d="M409.277 529.627C405.418 529.627 401.097 529.282 396.143 528.302C394.934 528.072 394.127 526.862 394.358 525.652C394.588 524.442 395.798 523.636 397.007 523.866C417.745 527.841 427.71 520.87 427.825 520.813C428.805 520.064 430.245 520.294 430.936 521.331C431.685 522.311 431.454 523.751 430.475 524.442C430.13 524.673 423.275 529.627 409.277 529.627Z" fill="#000200"/>
<path d="M397.641 238.573C396.719 238.573 395.855 237.997 395.509 237.075C395.106 235.923 395.74 234.598 396.892 234.194C401.327 232.639 404.841 229.931 405.82 227.338C406.281 226.129 406.166 224.976 405.532 223.767C403.804 220.598 395.682 221.347 392.053 222.211C390.844 222.499 389.634 221.75 389.346 220.54C389.058 219.33 389.807 218.121 391.016 217.832C392.514 217.487 405.648 214.606 409.507 221.577C410.774 223.939 411.005 226.474 410.083 228.894C408.585 232.812 404.265 236.384 398.447 238.4C398.159 238.573 397.871 238.573 397.641 238.573Z" fill="#000200"/>
<path d="M361.235 204.869L362.733 209.075C364.634 214.548 373.159 211.552 371.201 206.079L369.703 201.873C367.744 196.4 359.277 199.396 361.235 204.869Z" fill="#000200"/>
<path d="M360.486 177.099C358.24 178.712 356.281 180.728 353.92 182.111C351.443 183.609 353.286 187.7 355.763 186.202C358.47 184.589 360.717 182.399 363.309 180.556C365.728 178.885 362.848 175.428 360.486 177.099Z" fill="#000200"/>
<path d="M350.981 333.575C349.829 333.575 348.85 332.711 348.735 331.559C348.62 330.349 349.484 329.197 350.693 329.081C351.039 329.024 385.141 325.048 399.023 308.859C410.313 295.666 409.392 277.576 395.509 237.075C395.106 235.922 395.74 234.597 396.892 234.194C398.101 233.791 399.369 234.424 399.772 235.577C412.387 272.276 416.535 295.263 402.479 311.74C387.445 329.312 352.71 333.345 351.212 333.517C351.154 333.575 351.039 333.575 350.981 333.575Z" fill="#000200"/>
<path d="M363.366 328.736L355.129 351.435C345.336 347.806 340.382 337.032 338.712 327.354C346.834 328.621 355.129 329.082 363.366 328.736Z" fill="#000200"/>
<path d="M350.982 333.575C332.721 333.575 316.823 294.226 304.035 262.654C299.081 250.383 293.493 236.556 290.959 234.54C278.689 238.227 270.509 243.297 267.571 249.058C266.131 251.881 265.959 254.819 266.995 257.815C267.629 259.659 269.357 263 273.62 264.901C278.343 267.033 284.622 266.63 291.88 263.749C292.456 263.519 293.09 263.519 293.608 263.807C294.184 264.037 294.588 264.498 294.818 265.074C300.809 280.918 301.5 293.074 296.892 300.218C294.357 304.193 290.152 306.497 285.141 306.843C269.012 307.822 260.717 297.683 244.991 257.469L233.009 223.478C224.253 198.59 227.594 164.08 293.378 140.862C335.141 126.114 362.56 135.504 374.945 168.747C377.883 176.639 380.532 183.611 382.952 190.178C386.811 200.433 390.267 209.536 393.781 219.388C394.185 220.54 393.608 221.865 392.399 222.268C391.247 222.672 389.922 222.096 389.519 220.886C386.005 211.092 382.606 201.989 378.747 191.791C376.27 185.281 373.62 178.31 370.682 170.36C359.219 139.422 334.392 131.183 294.818 145.126C260.429 157.282 222.525 180.442 237.157 222.038L249.138 255.971C265.037 296.588 272.007 303.214 284.853 302.465C287.387 302.292 290.843 301.37 293.147 297.913C296.719 292.382 296.143 282.127 291.419 268.877C282.03 272.103 275.636 270.835 271.834 269.107C267.571 267.148 264.346 263.692 262.848 259.428C261.811 256.548 261.12 252.054 263.654 247.157C267.226 240.128 276.27 234.425 290.44 230.219C295.336 229.527 298.85 237.651 308.355 261.099C319.3 288.234 335.889 329.197 351.154 329.254C352.422 329.254 353.401 330.234 353.401 331.501C353.228 332.538 352.191 333.575 350.982 333.575Z" fill="#000200"/>
<path d="M348.044 378.859C347.814 378.859 347.583 378.801 347.295 378.743C346.143 378.34 345.51 377.073 345.913 375.92L361.235 330.637C361.639 329.485 362.906 328.851 364.058 329.255C365.21 329.658 365.844 330.925 365.44 332.078L350.118 377.361C349.83 378.225 348.966 378.859 348.044 378.859Z" fill="#000200"/>
<path d="M333.239 256.721C323.504 256.721 317.974 237.248 310.947 212.59C308.527 204.063 305.993 195.306 303.285 187.298C301.615 182.459 301.73 178.195 303.631 174.566C307.663 166.788 318.781 163.619 330.474 160.278C341.765 157.052 353.458 153.71 356.396 146.278C356.857 145.126 358.182 144.55 359.334 145.011C360.486 145.472 361.062 146.797 360.601 147.949C356.857 157.397 344.069 161.084 331.742 164.599C321.431 167.537 310.831 170.59 307.663 176.64C306.338 179.175 306.338 182.171 307.606 185.858C310.371 193.981 312.905 202.796 315.325 211.38C320.797 230.565 326.96 252.227 333.297 252.227H333.355C336.811 252.112 344.126 248.655 351.845 244.91C367.571 237.363 387.156 227.915 398.792 234.367C399.887 234.943 400.29 236.326 399.656 237.421C399.08 238.515 397.698 238.919 396.603 238.285C386.984 232.927 367.802 242.202 353.804 248.943C344.933 253.206 337.963 256.606 333.527 256.721C333.355 256.721 333.297 256.721 333.239 256.721Z" fill="#000200"/>
<path d="M271.258 345.558C271.086 345.558 270.855 345.558 270.682 345.5C269.473 345.155 268.781 343.945 269.127 342.735L279.669 304.02C280.014 302.81 281.224 302.118 282.434 302.464C283.643 302.81 284.334 304.02 283.989 305.229L273.447 343.945C273.159 344.867 272.238 345.558 271.258 345.558Z" fill="#000200"/>
<path d="M383.413 255.106C381.915 254.184 380.36 253.377 378.747 252.628C376.154 251.419 374.599 255.624 377.249 256.834C378.516 257.41 379.726 258.102 380.878 258.793C383.297 260.291 385.889 256.661 383.413 255.106Z" fill="#000200"/>
</svg>
