<svg width="512" height="512" viewBox="0 0 512 512" fill="none" xmlns="http://www.w3.org/2000/svg">
<path d="M240.625 467.491C240.62 467.491 240.627 467.491 240.622 467.491C174.236 467.491 118.381 464.376 74.863 460.559C48.038 458.206 31.242 430.436 41.526 405.549C70.052 336.514 105.271 268.318 146.587 202.178C174.71 157.157 201.859 119.21 224.817 89.354C240.828 68.532 272.151 68.526 288.163 89.347C311.007 119.054 338.011 156.786 365.994 201.53C407.099 267.255 442.186 335.022 470.665 403.632C481.005 428.541 464.144 456.352 437.278 458.713C370.936 464.544 305.006 467.491 240.625 467.491Z" fill="white"/>
<path d="M265.871 74.8449C258.081 76.8929 250.789 81.7779 245.397 89.4889C224.336 119.609 199.433 157.896 173.637 203.317C135.735 270.044 103.426 338.845 77.2628 408.486C68.7108 431.236 80.5628 456.375 101.177 462.66C91.9598 461.995 83.1888 461.286 74.8638 460.559C48.0348 458.204 31.2458 430.439 41.5228 405.544C70.0498 336.517 105.274 268.32 146.59 202.179C174.714 157.161 201.859 119.206 224.819 89.3579C234.954 76.1749 251.236 71.3349 265.871 74.8449Z" fill="#D6EAFF"/>
<path d="M441.838 272.061V269.167C441.838 258.959 449.742 250.494 459.927 249.795L491.254 247.646C502.475 246.876 512 255.771 512 267.018V274.21C512 285.457 502.474 294.352 491.254 293.582L459.927 291.433C449.743 290.735 441.838 282.27 441.838 272.061Z" fill="white"/>
<path d="M417.664 178.948L416.217 176.441C411.113 167.6 413.726 156.317 422.196 150.62L448.251 133.096C457.584 126.819 470.28 129.759 475.904 139.499L479.5 145.728C485.124 155.468 481.321 167.934 471.219 172.878L443.015 186.68C433.846 191.168 422.768 187.789 417.664 178.948Z" fill="white"/>
<path d="M350.172 110.397L347.665 108.95C338.824 103.846 335.446 92.7676 339.933 83.5986L353.735 55.3946C358.679 45.2926 371.145 41.4906 380.885 47.1136L387.114 50.7096C396.854 56.3336 399.794 69.0296 393.517 78.3626L375.993 104.418C370.296 112.888 359.013 115.501 350.172 110.397Z" fill="white"/>
<path d="M70.162 272.061V269.167C70.162 258.959 62.258 250.494 52.073 249.795L20.746 247.646C9.526 246.876 0 255.771 0 267.018V274.21C0 285.457 9.526 294.352 20.746 293.582L52.073 291.433C62.257 290.735 70.162 282.27 70.162 272.061Z" fill="white"/>
<path d="M94.3358 178.948L95.7828 176.441C100.887 167.6 98.2738 156.317 89.8038 150.62L63.7488 133.096C54.4158 126.819 41.7198 129.759 36.0958 139.499L32.4998 145.728C26.8758 155.468 30.6788 167.934 40.7808 172.878L68.9848 186.68C78.1538 191.168 89.2318 187.789 94.3358 178.948Z" fill="white"/>
<path d="M161.828 110.397L164.335 108.95C173.176 103.846 176.554 92.7676 172.067 83.5986L158.265 55.3946C153.321 45.2926 140.855 41.4906 131.115 47.1136L124.886 50.7096C115.146 56.3336 112.206 69.0296 118.483 78.3626L136.007 104.418C141.704 112.888 152.987 115.501 161.828 110.397Z" fill="white"/>
<path d="M244.901 180.12C252.371 179.369 259.841 179.369 267.311 180.12C276.762 181.071 283.997 188.964 284.346 198.456C285.485 229.505 285.485 260.554 284.346 291.603C283.998 301.095 276.762 308.989 267.311 309.939C259.841 310.69 252.371 310.69 244.901 309.939C235.45 308.988 228.215 301.095 227.866 291.603C226.727 260.554 226.727 229.505 227.866 198.456C228.215 188.963 235.45 181.07 244.901 180.12Z" fill="#1479FF"/>
<path d="M245.443 344.015C252.552 343.675 259.661 343.675 266.77 344.015C276.567 344.484 284.435 352.37 284.877 362.168C285.308 371.72 285.308 381.272 284.877 390.825C284.435 400.623 276.567 408.509 266.77 408.978C259.661 409.318 252.552 409.318 245.443 408.978C235.646 408.509 227.778 400.623 227.336 390.825C226.905 381.273 226.905 371.721 227.336 362.168C227.778 352.37 235.646 344.484 245.443 344.015Z" fill="#1479FF"/>
</svg>
