<svg width="434" height="51" viewBox="0 0 434 51" fill="none" xmlns="http://www.w3.org/2000/svg">
<path d="M0 9.04379V2H32.9545V9.04379H20.6701V42.4081H12.2845V9.04379H0Z" fill="black"/>
<path d="M47.5754 43C44.4798 43 41.8152 42.3686 39.5817 41.1059C37.3612 39.83 35.6501 38.0279 34.4484 35.6997C33.2468 33.3584 32.6459 30.5895 32.6459 27.3932C32.6459 24.2757 33.2468 21.5398 34.4484 19.1853C35.6501 16.8308 37.3416 14.9958 39.5229 13.6805C41.7173 12.3651 44.2904 11.7074 47.2423 11.7074C49.2277 11.7074 51.0759 12.0297 52.787 12.6742C54.5111 13.3056 56.0132 14.2592 57.2933 15.5351C58.5864 16.811 59.5921 18.4158 60.3105 20.3494C61.0289 22.2698 61.3881 24.5191 61.3881 27.0972V29.4057H40.8944V24.1968H53.5315C53.5315 22.9867 53.2703 21.9147 52.7478 20.9808C52.2253 20.0468 51.5004 19.3168 50.573 18.7907C49.6587 18.2514 48.5942 17.9817 47.3795 17.9817C46.1125 17.9817 44.9892 18.2777 44.0096 18.8696C43.043 19.4483 42.2854 20.231 41.7368 21.2175C41.1882 22.1909 40.9074 23.2761 40.8944 24.4731V29.4254C40.8944 30.9249 41.1687 32.2206 41.7172 33.3123C42.2789 34.4041 43.0691 35.2459 44.0879 35.8378C45.1067 36.4297 46.3149 36.7257 47.7125 36.7257C48.6399 36.7257 49.4889 36.5942 50.2596 36.3311C51.0302 36.068 51.6898 35.6734 52.2384 35.1473C52.787 34.6211 53.205 33.9766 53.4923 33.2137L61.2118 33.7267C60.8199 35.5945 60.0166 37.2255 58.8019 38.6198C57.6002 40.001 56.0459 41.0796 54.1389 41.8556C52.2449 42.6185 50.0571 43 47.5754 43Z" fill="black"/>
<path d="M75.1812 24.8874V42.4081H66.8348V12.102H74.7893V17.449H75.142C75.8081 15.6864 76.9249 14.2921 78.4923 13.2661C80.0597 12.227 81.9602 11.7074 84.1937 11.7074C86.2836 11.7074 88.1057 12.1678 89.66 13.0885C91.2143 14.0093 92.4225 15.3247 93.2846 17.0347C94.1467 18.7315 94.5777 20.7571 94.5777 23.1116V42.4081H86.2313V24.6112C86.2444 22.7565 85.7742 21.3096 84.8207 20.2705C83.8672 19.2182 82.5545 18.692 80.8826 18.692C79.7593 18.692 78.7666 18.9354 77.9045 19.422C77.0555 19.9087 76.3894 20.619 75.9061 21.5529C75.4359 22.4737 75.1942 23.5852 75.1812 24.8874Z" fill="black"/>
<path d="M112.245 42.9013C109.959 42.9013 107.889 42.3094 106.034 41.1256C104.193 39.9286 102.73 38.1726 101.646 35.8576C100.575 33.5294 100.039 30.675 100.039 27.2945C100.039 23.8219 100.594 20.9347 101.704 18.6328C102.815 16.3178 104.291 14.5881 106.132 13.4437C107.987 12.2862 110.018 11.7074 112.226 11.7074C113.911 11.7074 115.315 11.9968 116.438 12.5756C117.574 13.1412 118.489 13.8515 119.181 14.7064C119.886 15.5483 120.422 16.377 120.788 17.1925H121.042V2H129.369V42.4081H121.14V37.5544H120.788C120.396 38.3962 119.841 39.2315 119.122 40.0602C118.417 40.8757 117.496 41.5531 116.36 42.0924C115.236 42.6317 113.865 42.9013 112.245 42.9013ZM114.89 36.2127C116.236 36.2127 117.372 35.8444 118.299 35.1078C119.24 34.358 119.958 33.3123 120.454 31.9706C120.964 30.629 121.219 29.0571 121.219 27.2551C121.219 25.453 120.97 23.8877 120.474 22.5592C119.978 21.2307 119.259 20.2047 118.319 19.4812C117.378 18.7578 116.236 18.3961 114.89 18.3961C113.519 18.3961 112.363 18.7709 111.422 19.5207C110.482 20.2705 109.77 21.3096 109.287 22.6381C108.803 23.9666 108.562 25.5056 108.562 27.2551C108.562 29.0176 108.803 30.5764 109.287 31.9312C109.783 33.2729 110.495 34.3252 111.422 35.0881C112.363 35.8378 113.519 36.2127 114.89 36.2127Z" fill="black"/>
<path d="M149.946 43C146.85 43 144.186 42.3686 141.952 41.1059C139.732 39.83 138.021 38.0279 136.819 35.6997C135.617 33.3584 135.017 30.5895 135.017 27.3932C135.017 24.2757 135.617 21.5398 136.819 19.1853C138.021 16.8308 139.712 14.9958 141.893 13.6805C144.088 12.3651 146.661 11.7074 149.613 11.7074C151.598 11.7074 153.447 12.0297 155.158 12.6742C156.882 13.3056 158.384 14.2592 159.664 15.5351C160.957 16.811 161.963 18.4158 162.681 20.3494C163.4 22.2698 163.759 24.5191 163.759 27.0972V29.4057H143.265V24.1968H155.902C155.902 22.9867 155.641 21.9147 155.118 20.9808C154.596 20.0468 153.871 19.3168 152.944 18.7907C152.029 18.2514 150.965 17.9817 149.75 17.9817C148.483 17.9817 147.36 18.2777 146.38 18.8696C145.414 19.4483 144.656 20.231 144.107 21.2175C143.559 22.1909 143.278 23.2761 143.265 24.4731V29.4254C143.265 30.9249 143.539 32.2206 144.088 33.3123C144.65 34.4041 145.44 35.2459 146.459 35.8378C147.477 36.4297 148.686 36.7257 150.083 36.7257C151.011 36.7257 151.86 36.5942 152.63 36.3311C153.401 36.068 154.06 35.6734 154.609 35.1473C155.158 34.6211 155.576 33.9766 155.863 33.2137L163.582 33.7267C163.191 35.5945 162.387 37.2255 161.172 38.6198C159.971 40.001 158.416 41.0796 156.509 41.8556C154.616 42.6185 152.428 43 149.946 43Z" fill="black"/>
<path d="M169.205 42.4081V12.102H177.297V17.3898H177.611C178.159 15.5088 179.08 14.0882 180.373 13.128C181.666 12.1546 183.155 11.668 184.84 11.668C185.258 11.668 185.709 11.6943 186.192 11.7469C186.675 11.7995 187.1 11.8718 187.466 11.9639V19.422C187.074 19.3037 186.532 19.1984 185.839 19.1064C185.147 19.0143 184.514 18.9682 183.939 18.9682C182.711 18.9682 181.614 19.2379 180.647 19.7772C179.694 20.3033 178.936 21.0399 178.375 21.987C177.826 22.9341 177.552 24.0258 177.552 25.2623V42.4081H169.205Z" fill="black"/>
<path d="M194.144 2H204.607L215.657 29.1492H216.127L227.177 2H237.64V42.4081H229.411V16.1073H229.078L218.694 42.2108H213.09L202.706 16.0087H202.373V42.4081H194.144V2Z" fill="#487DE5"/>
<path d="M258.187 43C255.092 43 252.427 42.3686 250.194 41.1059C247.973 39.83 246.262 38.0279 245.06 35.6997C243.859 33.3584 243.258 30.5895 243.258 27.3932C243.258 24.2757 243.859 21.5398 245.06 19.1853C246.262 16.8308 247.954 14.9958 250.135 13.6805C252.329 12.3651 254.902 11.7074 257.854 11.7074C259.84 11.7074 261.688 12.0297 263.399 12.6742C265.123 13.3056 266.625 14.2592 267.905 15.5351C269.198 16.811 270.204 18.4158 270.922 20.3494C271.641 22.2698 272 24.5191 272 27.0972V29.4057H251.506V24.1968H264.143C264.143 22.9867 263.882 21.9147 263.36 20.9808C262.837 20.0468 262.112 19.3168 261.185 18.7907C260.271 18.2514 259.206 17.9817 257.991 17.9817C256.724 17.9817 255.601 18.2777 254.621 18.8696C253.655 19.4483 252.897 20.231 252.349 21.2175C251.8 22.1909 251.519 23.2761 251.506 24.4731V29.4254C251.506 30.9249 251.781 32.2206 252.329 33.3123C252.891 34.4041 253.681 35.2459 254.7 35.8378C255.719 36.4297 256.927 36.7257 258.324 36.7257C259.252 36.7257 260.101 36.5942 260.871 36.3311C261.642 36.068 262.302 35.6734 262.85 35.1473C263.399 34.6211 263.817 33.9766 264.104 33.2137L271.824 33.7267C271.432 35.5945 270.629 37.2255 269.414 38.6198C268.212 40.001 266.658 41.0796 264.751 41.8556C262.857 42.6185 260.669 43 258.187 43Z" fill="#487DE5"/>
<rect x="288" width="146" height="51" rx="8" fill="black"/>
<path d="M303.812 34.5V18H311.037C313.037 18 314.512 18.3917 315.462 19.175C316.412 19.9583 316.887 21.0667 316.887 22.5C316.887 23.3833 316.62 24.1667 316.087 24.85C315.553 25.5333 314.77 25.9667 313.737 26.15V26.175C314.887 26.3417 315.77 26.775 316.387 27.475C317.003 28.175 317.312 29.0083 317.312 29.975C317.312 31.3917 316.795 32.5 315.762 33.3C314.745 34.1 313.253 34.5 311.287 34.5H303.812ZM307.162 31.9H310.987C311.92 31.9 312.612 31.7083 313.062 31.325C313.512 30.9417 313.737 30.4083 313.737 29.725C313.737 29.025 313.512 28.4917 313.062 28.125C312.612 27.7583 311.92 27.575 310.987 27.575H307.162V31.9ZM307.162 24.925H310.587C312.403 24.925 313.312 24.2167 313.312 22.8C313.312 21.3833 312.403 20.675 310.587 20.675H307.162V24.925ZM326.058 34.75C324.742 34.75 323.592 34.4917 322.608 33.975C321.642 33.4583 320.892 32.7167 320.358 31.75C319.825 30.7833 319.558 29.6167 319.558 28.25C319.558 26.8833 319.825 25.7167 320.358 24.75C320.892 23.7833 321.633 23.0417 322.583 22.525C323.55 22.0083 324.65 21.75 325.883 21.75C327.15 21.75 328.225 22.0083 329.108 22.525C329.992 23.025 330.667 23.7167 331.133 24.6C331.6 25.4667 331.833 26.4583 331.833 27.575C331.833 27.9083 331.825 28.225 331.808 28.525C331.792 28.825 331.767 29.0917 331.733 29.325H321.758V26.95H330.233L328.583 27.55C328.583 26.5 328.342 25.6917 327.858 25.125C327.392 24.5583 326.725 24.275 325.858 24.275C325.225 24.275 324.675 24.425 324.208 24.725C323.758 25.025 323.417 25.475 323.183 26.075C322.95 26.6583 322.833 27.4 322.833 28.3C322.833 29.1833 322.958 29.9167 323.208 30.5C323.475 31.0667 323.842 31.4917 324.308 31.775C324.792 32.0583 325.367 32.2 326.033 32.2C326.767 32.2 327.358 32.0583 327.808 31.775C328.258 31.4917 328.608 31.1 328.858 30.6L331.583 31.65C331.317 32.3 330.908 32.8583 330.358 33.325C329.825 33.7917 329.183 34.15 328.433 34.4C327.7 34.6333 326.908 34.75 326.058 34.75ZM338.941 18.175V30.425C338.941 31.025 339.091 31.4667 339.391 31.75C339.708 32.0167 340.133 32.15 340.666 32.15C341.083 32.15 341.45 32.0917 341.766 31.975C342.083 31.8417 342.366 31.6667 342.616 31.45L343.166 33.725C342.766 34.0417 342.266 34.2917 341.666 34.475C341.066 34.6583 340.433 34.75 339.766 34.75C338.933 34.75 338.191 34.625 337.541 34.375C336.908 34.125 336.408 33.725 336.041 33.175C335.691 32.625 335.516 31.8917 335.516 30.975V19.125L338.941 18.175ZM342.941 22V24.55H333.216V22H342.941ZM352.506 26.525C352.506 25.8083 352.297 25.25 351.881 24.85C351.481 24.45 350.947 24.25 350.281 24.25C349.664 24.25 349.122 24.4083 348.656 24.725C348.189 25.0417 347.847 25.5667 347.631 26.3L344.706 25.4C344.989 24.3 345.606 23.4167 346.556 22.75C347.522 22.0833 348.814 21.75 350.431 21.75C351.531 21.75 352.489 21.925 353.306 22.275C354.122 22.6083 354.756 23.1167 355.206 23.8C355.672 24.4833 355.906 25.3417 355.906 26.375V31.45C355.906 32.0833 356.206 32.4 356.806 32.4C357.089 32.4 357.356 32.3583 357.606 32.275L357.406 34.4C356.972 34.6167 356.431 34.725 355.781 34.725C355.197 34.725 354.672 34.625 354.206 34.425C353.739 34.225 353.372 33.925 353.106 33.525C352.839 33.1083 352.706 32.5917 352.706 31.975V31.875L353.306 31.775C353.206 32.4083 352.931 32.95 352.481 33.4C352.031 33.8333 351.481 34.1667 350.831 34.4C350.197 34.6333 349.539 34.75 348.856 34.75C348.006 34.75 347.272 34.625 346.656 34.375C346.039 34.1083 345.564 33.725 345.231 33.225C344.897 32.725 344.731 32.1083 344.731 31.375C344.731 30.4417 345.031 29.6833 345.631 29.1C346.231 28.5 347.089 28.0917 348.206 27.875L352.906 26.925L352.881 29.05L349.881 29.65C349.314 29.7667 348.881 29.925 348.581 30.125C348.297 30.3083 348.156 30.6167 348.156 31.05C348.156 31.4667 348.306 31.7833 348.606 32C348.922 32.2167 349.297 32.325 349.731 32.325C350.081 32.325 350.422 32.2833 350.756 32.2C351.089 32.1167 351.389 31.9833 351.656 31.8C351.922 31.6167 352.131 31.3667 352.281 31.05C352.431 30.7333 352.506 30.35 352.506 29.9V26.525ZM368.519 26.4V29.35H359.694V26.4H368.519ZM383.634 18V20.775H378.109V34.5H374.659V20.775H369.109V18H383.634ZM389.437 34.75C388.121 34.75 386.971 34.4917 385.987 33.975C385.021 33.4583 384.271 32.7167 383.737 31.75C383.204 30.7833 382.937 29.6167 382.937 28.25C382.937 26.8833 383.204 25.7167 383.737 24.75C384.271 23.7833 385.012 23.0417 385.962 22.525C386.929 22.0083 388.029 21.75 389.262 21.75C390.529 21.75 391.604 22.0083 392.487 22.525C393.371 23.025 394.046 23.7167 394.512 24.6C394.979 25.4667 395.212 26.4583 395.212 27.575C395.212 27.9083 395.204 28.225 395.187 28.525C395.171 28.825 395.146 29.0917 395.112 29.325H385.137V26.95H393.612L391.962 27.55C391.962 26.5 391.721 25.6917 391.237 25.125C390.771 24.5583 390.104 24.275 389.237 24.275C388.604 24.275 388.054 24.425 387.587 24.725C387.137 25.025 386.796 25.475 386.562 26.075C386.329 26.6583 386.212 27.4 386.212 28.3C386.212 29.1833 386.337 29.9167 386.587 30.5C386.854 31.0667 387.221 31.4917 387.687 31.775C388.171 32.0583 388.746 32.2 389.412 32.2C390.146 32.2 390.737 32.0583 391.187 31.775C391.637 31.4917 391.987 31.1 392.237 30.6L394.962 31.65C394.696 32.3 394.287 32.8583 393.737 33.325C393.204 33.7917 392.562 34.15 391.812 34.4C391.079 34.6333 390.287 34.75 389.437 34.75ZM403.115 34.75C401.848 34.75 400.69 34.525 399.64 34.075C398.607 33.625 397.765 32.9917 397.115 32.175L399.09 30.175C399.49 30.775 400.023 31.2667 400.69 31.65C401.357 32.0333 402.148 32.225 403.065 32.225C403.715 32.225 404.232 32.1333 404.615 31.95C405.015 31.75 405.215 31.4417 405.215 31.025C405.215 30.7583 405.123 30.5333 404.94 30.35C404.757 30.15 404.39 29.9917 403.84 29.875L401.64 29.425C400.19 29.125 399.157 28.675 398.54 28.075C397.94 27.4583 397.64 26.6667 397.64 25.7C397.64 25.0167 397.84 24.375 398.24 23.775C398.657 23.175 399.273 22.6917 400.09 22.325C400.907 21.9417 401.923 21.75 403.14 21.75C404.39 21.75 405.473 21.95 406.39 22.35C407.323 22.7333 408.057 23.3083 408.59 24.075L406.54 26.075C406.173 25.4917 405.69 25.05 405.09 24.75C404.507 24.4333 403.89 24.275 403.24 24.275C402.773 24.275 402.373 24.325 402.04 24.425C401.707 24.525 401.457 24.6667 401.29 24.85C401.123 25.0167 401.04 25.2333 401.04 25.5C401.04 25.7667 401.157 26 401.39 26.2C401.623 26.3833 402.048 26.5417 402.665 26.675L405.215 27.2C406.448 27.45 407.332 27.875 407.865 28.475C408.398 29.0583 408.665 29.7667 408.665 30.6C408.665 31.4 408.448 32.1167 408.015 32.75C407.598 33.3667 406.973 33.8583 406.14 34.225C405.323 34.575 404.315 34.75 403.115 34.75ZM415.821 18.175V30.425C415.821 31.025 415.971 31.4667 416.271 31.75C416.588 32.0167 417.013 32.15 417.546 32.15C417.963 32.15 418.33 32.0917 418.646 31.975C418.963 31.8417 419.246 31.6667 419.496 31.45L420.046 33.725C419.646 34.0417 419.146 34.2917 418.546 34.475C417.946 34.6583 417.313 34.75 416.646 34.75C415.813 34.75 415.071 34.625 414.421 34.375C413.788 34.125 413.288 33.725 412.921 33.175C412.571 32.625 412.396 31.8917 412.396 30.975V19.125L415.821 18.175ZM419.821 22V24.55H410.096V22H419.821Z" fill="white"/>
</svg>
